<svg xmlns="http://www.w3.org/2000/svg" viewBox="0 0 501.21 255.64">
    <defs>
        <style>.cls-1{opacity:.05;}.cls-2{fill-rule:evenodd;}</style>
        <linearGradient id="grad1" x1="0%" y1="0%" x2="100%" y2="0%">
            <stop offset="0%" style="stop-color:rgb(0,0,0);stop-opacity:1" />
            <stop offset="75%" style="stop-color:rgb(255,128,0);stop-opacity:1" />
            <stop offset="100%" style="stop-color:rgb(255,128,0);stop-opacity:1" />
        </linearGradient>
    </defs>
    <title>Asset 1</title>
    <g id="Layer_2" data-name="Layer 2">
        <g id="Layer_1-2" data-name="Layer 1">
            <g class="cls-1">
                <path class="cls-2"
                      d="M481.49,255.4,482,255a9.45,9.45,0,0,0-.56-1.4c-.5-.86-1.14-1.64-1.61-2.51-1.29-2.36-.47-4.4,2.1-5.19,1.16-.36,2.41-.46,3.53-.91,3.31-1.33,6.08-.22,8.59,1.83a3.63,3.63,0,0,1,1.15,2.2,30.33,30.33,0,0,1,0,4.64c0,1.38.45,2,1.92,2,4.71-.07,4,.36,4.07-3.92.06-3-.05-5.86-2-8.36a1.77,1.77,0,0,1,.17-1.63,10.3,10.3,0,0,0,1.83-6.41c0-4.48,0-9,0-13.43a9.67,9.67,0,0,0-2.11-6.64,4.09,4.09,0,0,1-.77-1.45,27.52,27.52,0,0,0-6-9.86,7.07,7.07,0,0,1-1.83-2.71c-1-4.28-3.74-6-7.91-6.08a3.53,3.53,0,0,1-2.5-1.27,8,8,0,0,0-6-3.6,2.16,2.16,0,0,1-1.52-1.16c-1.16-3.64-3.94-5.08-7.4-5.41a2.31,2.31,0,0,1-2.45-2.28c-.49-3.43-1.16-6.84-1.56-10.27A9.28,9.28,0,0,1,462,165c1.36-2.27,2.64-4.59,3.87-6.94,2.78-5.32,1-10.49-4.51-12.86a2,2,0,0,1-1.4-2.37c.4-3.79-1.9-7.92-5.15-9-2.24-.73-3-2.11-3.07-4.29A7.87,7.87,0,0,0,448.1,123a10.94,10.94,0,0,0-7.56-1.8c-3.88.33-7.47,1.33-10.38,4.19a12.43,12.43,0,0,1-3.77,2.48c-2,.85-2.19.54-2.86-1.54A31.69,31.69,0,0,0,421,120c-.76-1.3-.78-2,.27-2.94a9.67,9.67,0,0,0,3.39-7,26.61,26.61,0,0,0-.5-5.41c-.22-1.34.09-2,1.53-2.05a11.42,11.42,0,0,0,7.05-2.94,13,13,0,0,1,3.18-2.34,8.49,8.49,0,0,0,5.44-7c.26-2.06.16-4.17.26-6.25a7,7,0,0,1,.29-2.43c1.85-4.2.34-7.5-2.6-10.48A5.36,5.36,0,0,1,438,69.51c-1.5-4-4.59-5.69-8.57-6-1.44-.1-1.62-.66-1.49-1.85a13.56,13.56,0,0,0,.12-3.61,21.84,21.84,0,0,0-4.39-10.39c-3.86-4.83-9.34-6.78-15.27-5-.92.28-1.84.53-2.76.8-.24-1-.46-2-.74-3a2.29,2.29,0,0,1,1.28-2.89,11.5,11.5,0,0,0,2.08-1.35c2.7-2.4,4.26-5.35,3.88-9.06-.19-1.87-.11-2,1.8-1.73a14.27,14.27,0,0,0,9.4-1.83A15.8,15.8,0,0,1,426.83,22a7.34,7.34,0,0,0,4.34-3.1c1-1.58,1.35-1.65,2.45-.11a9.13,9.13,0,0,0,8.31,3.9,8.67,8.67,0,0,1,2.31.08c5,1.21,8.29-2.18,12-4.37.22-.13.34-.43.52-.64,1.23-1.46,2.39-3,3.73-4.35,2.67-2.7,2.73-2.69,6.08-.87a5.9,5.9,0,0,0,4.8.59c-.37-.48-.55-.92-.88-1.1-1.89-1-3.76-2.06-5.73-2.89a89.78,89.78,0,0,0-8.49-3.21,12.73,12.73,0,0,0-5-.55,21.2,21.2,0,0,0-5.2,1.57c-2.43.95-3.45.64-4.59-1.63a6.74,6.74,0,0,0-4.37-3.54c-4.58-1.35-9.09-.41-13.61.34a7.94,7.94,0,0,0-5.29,3.39,4.16,4.16,0,0,1-6.65.15,12.21,12.21,0,0,0-6.26-4.12c-3.22-.91-6.26.11-9.29.82a6.46,6.46,0,0,0-3.54,1.94,26.77,26.77,0,0,0-4.35,7.3c-.83,2.48-.59,5.33-.76,8-.06,1-.13,1.78-1.45,1.63a12.91,12.91,0,0,0-10,3.11,12.2,12.2,0,0,1-3.71,2.08c-5.86,2-8.48,8.55-7.4,13.31a10.1,10.1,0,0,1-1.35,8.22,6.87,6.87,0,0,0,2.44,9.88c1,.56,2.23.65,3.26,1.15.67.32,1.54.91,1.68,1.52a8.14,8.14,0,0,0,5.32,6.28c.79.29,1,.77.57,1.55-1.18,2.25-1.87,2.53-4.33,2-4.31-1-8.43-.83-12.15,2a3.6,3.6,0,0,1-2.3.25c-1-.1-2-.79-2.88-.61-4.87,1-10.11,1.37-12.7,6.82-.52,1.1-1.91,2.53-2.87,2.52-1.6,0-2.06-1.9-2.47-3.35a6.91,6.91,0,0,0-5.29-5.17c-1.86-.45-2.65-1.38-2.92-3.38-.85-6.13-2.61-9-8.1-10a8.64,8.64,0,0,0-6.35,1.21c-2.35,1.46-3.36,1.2-5.41-.46a11.85,11.85,0,0,0-4.79-2.38c-4.18-.89-9.56.86-11,6a2.89,2.89,0,0,1-1.69,1.53c-1.9.69-3.8,1.63-4.36,3.55a47,47,0,0,1-4.79,10.82.9.9,0,0,0,0,.16A4.06,4.06,0,0,1,276,81.85a24.09,24.09,0,0,0-2.49-1.65,13.85,13.85,0,0,1-4.66-3.85c-2-2.52-5-3.27-8-3a27.7,27.7,0,0,0-6.61,1.47A8.9,8.9,0,0,0,250.44,77c-3.25,3.64-5.24,7.73-4,12.88a5.5,5.5,0,0,1-.64,3.38,63.24,63.24,0,0,1-3.54,6.11,2.86,2.86,0,0,1-1.61,1.09c-.22.06-.85-.74-1-1.23-.71-2.61-1.15-5.31-2-7.85A19,19,0,0,0,234.71,86a11.71,11.71,0,0,1-2.7-5,5.14,5.14,0,0,0-3.74-4.1A18.46,18.46,0,0,0,214,78.27c-1.11.61-2,.67-2.78-.3-1-1.28-2.06-2.59-3-3.95a7.32,7.32,0,0,0-5.32-3.58,22.16,22.16,0,0,0-5.08.08A3,3,0,0,1,194.52,69a47.41,47.41,0,0,0-3.73-3.89,4.63,4.63,0,0,1-1.16-2c-.66-3.19-1.06-6.43-1.79-9.59-.87-3.75-3.27-5.53-7.15-5.65a12,12,0,0,1-2.15,0,14,14,0,0,1-3.49-1.1,9.55,9.55,0,0,0-5.85-1.33c-2.35.3-4.71.61-7.07.82-6.84.59-9.57,3.71-9.07,10.47.15,2.09-.5,2.54-2.41,1.59a15.51,15.51,0,0,0-13-.72,3.68,3.68,0,0,1-2.27-.35c-1.22-.46-2.35-1.44-3.58-1.55a25.35,25.35,0,0,0-7.59.09c-6.94,1.53-11,6.35-13.38,12.79-1,2.63-.25,5.1.95,7.5a7.13,7.13,0,0,1,.81,2.47,21,21,0,0,0,4.16,11.36A15,15,0,0,1,118,92.29c-1.06.11-2.12.29-3.19.31-.4,0-.79-.37-1.2-.5a30.72,30.72,0,0,0-5.3-1.65,2.78,2.78,0,0,1-2.59-2.24,26.55,26.55,0,0,0-2.28-4.31c-.49-.84-1.2-1.57-1.63-2.44-1-2-2.28-3.92-4.54-4.58A16.21,16.21,0,0,0,83.6,78.64c-1.23.77-2,.81-2.92-.37-2.77-3.55-6.39-4.6-10.76-3.68a27.81,27.81,0,0,0-8.73,3.46c-2.43,1.47-4.27,3.32-4.86,6.18-.27,1.3-1,1.73-2.33,1.85a78.29,78.29,0,0,0-8,1.12,8.83,8.83,0,0,0-6.42,5.28c-1.42,3-2.71,6.14-4.1,9.2-2.84,6.27-.18,12.29,6.32,14.13,1.07.3,1.16.81.84,1.69a8.06,8.06,0,0,0-.15,5.84,4,4,0,0,1-.73,4A10.63,10.63,0,0,0,40,135.51a8.61,8.61,0,0,0,4.12,5.92c.82.52,1.34,1,.79,2.15-1.23,2.49-1.18,2.51-3.23.65a1.79,1.79,0,0,0-.38-.32c-1.88-.91-2.49-2.58-3-4.49a9.27,9.27,0,0,0-9.12-6.81,3.37,3.37,0,0,1-1.95-.64,6.77,6.77,0,0,0-7.6-.9,2.49,2.49,0,0,1-2.18-.28,7.76,7.76,0,0,0-7.61-1.53C2,131.39-1.78,138,.82,145c2.67-.31,3.92-1.28,4.44-3.82.69-3.4,3.2-5,6-6.31A1.7,1.7,0,0,1,13.78,136a21.46,21.46,0,0,0,2.07,3.37,1.76,1.76,0,0,0,2.86.35c.91-.71,1.71-1.57,2.62-2.29,1.26-1,1.9-.83,2.59.57.36.74.54,1.58.93,2.3a11,11,0,0,0,1.23,1.57,7.19,7.19,0,0,0,1.48-1.35c1.22-2,3-2.22,4.56-.43a5.91,5.91,0,0,1,1,5.65c-.56,2.11-.52,2.25,1.74,2.34a4.54,4.54,0,0,1,1.64.09c.64.3,1.5.78,1.65,1.34a36.74,36.74,0,0,1,.82,5.23,1.9,1.9,0,0,1-1.77,2.19,8.86,8.86,0,0,0-2.4.59c-.83.45-2,1.07-2.17,1.83-.82,3.08-1.4,6.22-1.91,9.37a2,2,0,0,0,.93,1.67c1.8.39,2.33,1.42,2.15,3.1a4.52,4.52,0,0,0,.25,1.12c.33,1.89.68,3.78,1,5.67a3.89,3.89,0,0,1-1.38,3.53,4.74,4.74,0,0,0-1.36,2.54c-.43,3.16-2.9,4.72-5,6.57-.42.37-1.44.13-2.18.07a16.52,16.52,0,0,0-3.73-.32,3.26,3.26,0,0,0-2.14,1.69c-1.07,2.6.33,6.12,2.95,7.75-.13-1.2-.27-2.29-.37-3.38-.17-1.91.54-3.27,2.07-3.45a37.71,37.71,0,0,1,6.6-.28,7.44,7.44,0,0,0,4.1-.73,7.51,7.51,0,0,1,3.8-.42c1.29.11,1.58,1.1,1,2.21-.4.78-.95,1.49-1.38,2.26a6.51,6.51,0,0,0-.6,5.14,3.78,3.78,0,0,0,1-1.49,8,8,0,0,1,7.95-5.45c.52,0,1.4.23,1.45.48a2.58,2.58,0,0,1-.46,1.64c-.5.79-1.18,1.46-1.71,2.24-1,1.43-.71,2.31.65,3.37,1.7,1.32,3.25,2.83,5,4.09A23.57,23.57,0,0,0,55,210.48c.89.42,1.92.56,2.81,1,2.42,1.15,3.14,3.3,2.16,5.79a8.85,8.85,0,0,1-7.59,5.84A8.44,8.44,0,0,0,46,227.75l-1.56,2.8a8.69,8.69,0,0,0,1.45-.21c2.52-1,5-2.13,7.55-3,3.85-1.25,7.7-1.79,11,1.4a3.62,3.62,0,0,0,1,.63,2.93,2.93,0,0,0,3.5-.79,2.92,2.92,0,0,0-.6-.24,4.49,4.49,0,0,1-4.19-4.21,2.22,2.22,0,0,0-.63-1.31c-1.68-1.44-1.51-3.18-1-5,.34-1.11.77-2.19,1.06-3.32a5.11,5.11,0,0,0-1.36-5.46c-1.63-1.56-3-3.36-4.57-5-2-2.17-3-4.59-2.05-7.57.5-1.59-.19-2.64-1.66-3.31-3-1.33-5.9-2.73-8.87-4a3.58,3.58,0,0,1-2.53-3.8c0-2.16.07-4.31,0-6.47a2.86,2.86,0,0,1,2.13-3c1.32-.53,2.92-1,3.76-2,3-3.6,7.41-5.81,9.88-10,.87-1.46,2.42-1.4,3.88-1.18a2.45,2.45,0,0,1,2,2.5,46.41,46.41,0,0,1,.2,5.46,6.85,6.85,0,0,0,1.38,4.63,5.72,5.72,0,0,1,.93,2.76,30.49,30.49,0,0,1,0,3.81,4.42,4.42,0,0,0,3.58,4.71c1,.27,1.35,0,1.35-1.12a6.74,6.74,0,0,1,.8-2.47c.19-.44.68-.76.85-1.21,1.1-2.88,3.45-4,6.23-4.62A33.75,33.75,0,0,0,84,175.9a3.67,3.67,0,0,0,2.37-3.14c.6-3.74,2.72-5,6.27-3.6a15.53,15.53,0,0,1,3.75,2.33c3.08,2.42,5.94,5.14,9.14,7.37,3.88,2.7,4,3.9.11,6.46a6.28,6.28,0,0,0-.08,10.23c2.34,1.67,4.13,3.81,4.47,6.86a19.55,19.55,0,0,0,.67,2.6c.81-2,1.57-3.47,2.06-5.05.85-2.73,1.42-5.83-.12-8.19a11.7,11.7,0,0,1-1.56-8.56,13.81,13.81,0,0,0-3.8-12.49,22.13,22.13,0,0,0-15-7.36,7,7,0,0,0-6.52,2.75,37.56,37.56,0,0,1-4.14,3.74c-2.92,2.6-7,3.6-9.42,6.92-.74,1-2,.66-2.12-.67a26,26,0,0,1,.21-4.72,15.13,15.13,0,0,0,.33-2.41c-.15-1.76-.5-3.5-.74-5.25-.35-2.55-.88-3-3.44-3.34a18.23,18.23,0,0,1-4.83-1c-3.41-1.47-5.85-.8-7.13,2.7-.86,2.35-2.43,3.08-4.64,3.23-3.33.23-3.88.87-5,4a73.86,73.86,0,0,1-4,9.24,12.64,12.64,0,0,0-1.7,5.27,12.26,12.26,0,0,1-.31,1.65l-.56.05a11.16,11.16,0,0,1-.86-3.06c.07-5.43.24-10.86.47-16.28.12-2.85,1.78-4.44,4.45-5.31a11.15,11.15,0,0,0,3.47-2.12c1.39-1.16,2.55-2.59,3.91-3.78a3,3,0,0,0,1.09-3.24,13.3,13.3,0,0,1-.85-2.49c-.06-1-.07-2.43.53-3a16.75,16.75,0,0,1,5.32-3.77c2.4-.89,3.52-2.19,3.64-4.65a3.11,3.11,0,0,1,2.5-3.08,18.53,18.53,0,0,0,8.59-4.78c1.66-1.71,3.89-1.75,6.06-1.13,1.45.41,2.12,1.59,1.45,2.62a10.64,10.64,0,0,1-3,3.43c-3.77,2.26-5.18,6.48-3.57,11.47.09-.06.21-.1.25-.18a2.29,2.29,0,0,0,.23-.61A9.12,9.12,0,0,1,76,139.75a9.36,9.36,0,0,1,10.68.4,1.68,1.68,0,0,0,1.59-.22,3.55,3.55,0,0,0,.8-1.78c.65-3,2.65-5,5-6.8,2.14-1.62,3.67-1.25,5,1.06a5.2,5.2,0,0,1,.11,5.5c-1.17,2.18-2.28,4.4-3.28,6.66a5.43,5.43,0,0,0,0,2,1.37,1.37,0,0,0,.82-1,6.67,6.67,0,0,1,5.36-6c2.83-.78,5.84-1.49,7.06-4.76.07-.19.33-.3.44-.49.57-1,1.13-2,1.69-3a15.67,15.67,0,0,0-3.36-.8,4,4,0,0,1-3.61-2.09c-.77-1.16-2.15-2.51-3.38-2.63a32.83,32.83,0,0,0-8.18.44c-2,.32-2.55,2.43-3.48,4-1.52,2.49-4.3,2.66-6.11.31a29.47,29.47,0,0,1-2-3.08c-1.87-3.17-4.89-3.89-8.2-2.12A29.27,29.27,0,0,1,66,128.42a8.06,8.06,0,0,0-6.22,5.29c-.43,1.07-1.47,2.42-2.45,2.64a33.06,33.06,0,0,1-7.83.77c-3.95-.08-4.77-3.83-3-6.45.77-1.15,1.65-2.23,2.32-3.43.91-1.64,1.17-3.26-.3-4.87a2.22,2.22,0,0,1,.74-3.63c1-.54,2.19-.76,3.24-1.23,1.44-.64,2.87-1.33,4.25-2.09.28-.16.59-.88.47-1.06-.67-1-1.33-2.59-2.25-2.79-3.51-.77-6.88-2.33-10.7-1.69-3.05.51-4.37-1.12-3.91-4.23a10.43,10.43,0,0,1,1-2.44c1-2.37,2.19-4.69,3.07-7.11s1.91-3.36,4.57-3.66c1.92-.22,3.84-.52,5.77-.56a7.13,7.13,0,0,1,3.14.72c.86.41,1,1.26.12,2a8.93,8.93,0,0,0-1.34,1.23,4,4,0,0,0-.85,4.08c.36-.12.57-.12.66-.23,2.82-3.27,6.7-3.56,10.59-3.78,1.75-.1,2,.3,2.19,2.08a12.73,12.73,0,0,0,.95,3,24.89,24.89,0,0,1,1.3,3.25c.39,1.83.47,3.73.82,5.57a2.42,2.42,0,0,0,2.2,2.26,5.83,5.83,0,0,0-.41-1.21c-1.75-2.72-1.61-5.53-.48-8.41.5-1.29,1.3-2.57,1.37-3.89a5.42,5.42,0,0,1,2.74-4.43c1-.72,2-1.57,3-2.36l-.37-.59a11.78,11.78,0,0,0-2.19,1.13c-1,.83-1.88,1.88-2.89,2.72-1.62,1.35-2.49,1.17-3.49-.7a5.23,5.23,0,0,0-4.59-3,8.46,8.46,0,0,1-2.88-.71c-2.94-1.32-3.49-5.42-.82-7a33.38,33.38,0,0,1,7.22-3.2c3-.92,4.65-.08,6.26,2.6A12.3,12.3,0,0,1,78,85.56c.56,1.75,1.66,2.46,3.37,1.72A11.54,11.54,0,0,0,85,85c2.38-2.4,5.21-3.1,8.46-3A3.19,3.19,0,0,1,96.6,84.2c.33.81.55,1.86,1.17,2.33,2.19,1.62,2.81,3.81,3,6.35a3,3,0,0,0,3,3.17,33.64,33.64,0,0,0,4.46.27,2.76,2.76,0,0,1,2.7,1.79c1.66,3.41.26,6.49-1.09,9.5a3,3,0,0,1-2.22,1.16,31.83,31.83,0,0,1-4.44-.24c-.55,0-1.32-.3-1.59,0a6.15,6.15,0,0,0-1.14,2s.62.56.92.53c2.89-.31,5.77-.74,8.66-1a2.66,2.66,0,0,0,2.54-2c.66-2.33,1.29-4.67,1.74-7.05.26-1.39.76-2.31,2.25-2.37,2.26-.09,4.53-.15,6.79-.15a3.48,3.48,0,0,1,1.37.49,37.53,37.53,0,0,0,3.37,1.65c3.15,1.12,4,2.25,4.14,5.56.07,2.18.88,2.84,3.05,2.43.59-.11,1.15-.43,1.74-.52a62.15,62.15,0,0,1,7.17-1c2.32-.08,3.47,1.3,3.64,3.64a8.63,8.63,0,0,1-1.87,5.87c-1.14,1.56-2.33,3.09-3.48,4.64-1.27,1.71-.84,3,1.28,3.28a59.76,59.76,0,0,0,6.44.36c3,.08,4.12,1.06,4.83,4,.34,1.38,1,2.67,1.36,4,.54,2.18,1,4.38,1.34,6.6.18,1.18-.56,1.6-1.67,1.24s-2.11-.68-3.12-1.11c-1.21-.5-2.08-.26-2.49,1-.95,2.89-3,4.94-5,7.15a9.06,9.06,0,0,0-1.81,3.57c-.33,1.22-.88,1.53-2,1.34q-2-.36-4.08-.69c-2.75-.44-4.26,1.05-3.91,3.78.23,1.81.37,3.62.57,5.43a11.91,11.91,0,0,0,.3,1.3c.38-.22.62-.29.73-.45a8.43,8.43,0,0,1,6.52-3.75,1.85,1.85,0,0,0,1.32-1c.46-1.53,1.51-1.86,2.9-1.91a5.07,5.07,0,0,0,2.24-.48c.4-.23.85-1.19.69-1.49-1.7-3,.26-5.45,1.35-7.95.6-1.38,2.83-1.33,4.56,0,1.32,1,.07,1.69-.44,2.42-.8,1.16-.6,1.9.8,2.09s2.86.14,4.3.19c1.83.08,2.28.59,1.9,2.39-.29,1.35-.73,2.67-1.11,4s.11,1.85,1.45,1.89c2.21.07,4.41.26,6.61.35a2.24,2.24,0,0,1,2.39,2c.48,2.35,1.19,3,3.45,3.38a23.66,23.66,0,0,1,14.53,8.81,18.81,18.81,0,0,0,1.63,1.52c.08-.86.16-1.28.15-1.69-.06-2-.18-4.08-.19-6.13,0-2.24.54-2.86,2.71-3.17a17.68,17.68,0,0,1,2-.1,1.84,1.84,0,0,1,2.15,2,28.22,28.22,0,0,1-.57,4.88c-.55,2.72.83,4,3.59,3.52a37.27,37.27,0,0,1,7.38-.61c2.67.08,3.24,1,2.79,3.64-.3,1.75-.14,3.47,1.45,4.45,2.25,1.38,4.08,2.95,4.54,5.69,0,.07.18.11.28.16l-.06-.4c1.35-.26,2.68-.63,4-.76s2.79,0,4.19,0l.22-.37c-1.57-.95-3.11-1.95-4.72-2.82a3.1,3.1,0,0,1-1.84-2.89c0-1.82-.11-3.65-.27-5.47-.23-2.6-1-3.28-3.55-3.33-.55,0-1.11,0-1.66,0-3.4-.17-6.67-3.24-6.75-6.6-.07-2.9-1.45-4.55-4.05-5.59a11.2,11.2,0,0,1-2.76-2.16c-1.19-1-2.2-2.6-3.56-3a11.57,11.57,0,0,0-8,.29,3,3,0,0,0-1.95,2.42,25.82,25.82,0,0,1-1.44,4.9c-1,2.27-2.53,2.58-4.24.87a5.71,5.71,0,0,0-4.3-1.74c-2.3,0-2.81-.56-2.89-2.83,0-.55,0-1.11,0-1.66a5.21,5.21,0,0,0-2.46-4.77,6.34,6.34,0,0,1-2.17-2.21,7.44,7.44,0,0,0-4.3-3.66c-2.68-1.08-3.1-2.07-1.56-4.51,1.42-2.26,1.19-4.32,0-6.55a37.13,37.13,0,0,0-5.45-8.07c-1.48-1.62-1-2.54,1.11-3.12,4-1.07,7.9-1.65,11.91-.27,2.48.86,4.36-.77,6.92-1.54-1.06-.77-1.74-1.3-2.46-1.77-1.28-.84-2.4-1.7-2.38-3.5a2.05,2.05,0,0,0-1.17-1.6c-1.76-.24-3.74-.68-5.31-.12-3.67,1.3-7.14,3.19-10.74,4.73a8.54,8.54,0,0,1-2.6.24,9.51,9.51,0,0,1,.22-2.81,19.29,19.29,0,0,1,2.26-4.23c1.46-2,1.38-3.6-.3-5.56-2-2.36-1.1-4.31,1.94-4.84.6-.1,1.21-.13,1.82-.18,2.69-.25,2.81-.25,2.76-3-.06-2.92.31-5.68,2.46-7.82.75-.74,2-1.59,2.85-1.45a3.76,3.76,0,0,1,2.2,2.3c1.92,5.52,2.15,5.74,8,5.75h6.14c0-.15,0-.3,0-.45-1.48,0-3,0-4.43,0-1.84,0-3.22-.51-3.85-2.42a6.69,6.69,0,0,0-1-1.68c-1.57-2.18-3.21-4.33-4.73-6.54-1.33-1.93-2.79-2.18-4.21-.3a11.76,11.76,0,0,1-5.83,4.4c-1.28.42-1.63,1.45-1.3,2.82,1,4.13,1,4.17-3.18,4.79a4.85,4.85,0,0,0-4.27,3.15,3.58,3.58,0,0,1-6.2.68c-2.36-3-4-3.47-7.6-2.09a5.88,5.88,0,0,1-7.93-3c-.2-.42-.27-1.29,0-1.49,1.68-1.37.44-1.85-.59-2.64-5.32-4.07-9.57-8.75-9-16.15a4.58,4.58,0,0,0-1.16-2.59c-.87-1.18-1.43-2.34-.92-3.83a13,13,0,0,1,12-8.77c2.23-.07,3.79.48,4.7,2.74.79,2,4.2,2.44,5.45,1a6.78,6.78,0,0,1,8.83-1.6,11.23,11.23,0,0,0,5.51,1.47,19.53,19.53,0,0,1,2.81.18,2.23,2.23,0,0,0,3-2.06,32,32,0,0,0,.23-4.93c0-1-.16-2.09-.17-3.14a2.26,2.26,0,0,1,2.16-2.47q4.27-.58,8.55-1.07c1.44-.17,2.5.3,2.81,1.88.21,1.09.92,1.4,2,1.24,1.69-.26,3.39-.5,5.09-.7,2.08-.24,2.63.14,3.22,2.19a11.53,11.53,0,0,1,.4,1.78,73.64,73.64,0,0,0,1.09,8.19c.36,1.48,1.34,3.32,2.58,4,3.73,2,5.11,5.17,5.52,9a8.67,8.67,0,0,1-.81,3.82c-.62,1.61-1.45,1.86-3,1.19-.76-.32-1.47-.77-2.23-1.09-2-.86-5.21.06-6.29,1.88a5.23,5.23,0,0,0,.79.16c3.25.17,6.49.38,9.74.45a4.17,4.17,0,0,0,2.1-.8c1.83-1.15,2.11-3.1,2.48-5,.41-2.17,1.08-2.79,3.27-3.11.82-.12,1.65-.09,2.48-.15,1.52-.11,2.34.74,3.22,1.88a45.06,45.06,0,0,0,5.23,5.89,5.31,5.31,0,0,0,6.63.26A9.6,9.6,0,0,1,222.37,82c4.42.06,4.44,0,4.37,4.5,0,1,.22,1.72,1.31,2a5.15,5.15,0,0,1,4,4.2c.83,3.59,1.43,7.24,2,10.88.21,1.39.66,2.26,2.17,2.42,2.25.24,4.48.59,6.73.85a2.37,2.37,0,0,1,2.2,2.1,51.62,51.62,0,0,0,1.44,5.62c1.22,3.48,2.75,6.86,3.87,10.37a5,5,0,0,0,4.61,3.83c.55.06,1.1.15,1.64.25,6.14,1.19,6.89,2.35,6.08,8.55-.27,2.06-1.06,4.21.21,6.31,1.06,1.76.89,2.39-.67,3.67a20.26,20.26,0,0,0-1.85,1.4,61.75,61.75,0,0,0-4.63,5.12c-.41.53-.2,1.65-.05,2.46s.68,1.63.87,2.49c.51,2.26.09,3.12-2,4.12-1,.48-2.05.82-3.07,1.26-3.37,1.47-6.3,3.44-7.86,7a2.41,2.41,0,0,0,.2,2.92c1.39,1.52,2.75,3.06,4.15,4.62-.08.06.06,0,.08-.07.12-.42.18-.86.3-1.28.94-3.39,2.75-5.85,6.53-6.4a17.23,17.23,0,0,0,4-1.13,3.18,3.18,0,0,0,1.6-1.5,3,3,0,0,1,2.77-2c.57,0,1.14-.2,1.78-.31a29.94,29.94,0,0,1-1.84-2.85,19.29,19.29,0,0,1-1.23-3.25c-.7-2.43.7-5.89,2.9-6.57,3-.93,4.43-3.1,5.4-5.81,1.24-3.47,1.46-3.62,5.12-3.63h1.16c3.87.1,7.92,3.3,8.52,7.13.7,4.48,4.4,5.51,7.61,7.19,0,0,.18-.1.46-.28a17.65,17.65,0,0,0-.9-1.82c-1.37-2.14-2.86-4.21-4.14-6.4a4.41,4.41,0,0,1-.56-2.77c.57-3,.65-3-2.32-4-.42-.14-.85-.25-1.27-.38-2.67-.82-5.28-1.72-6.67-4.48a3.16,3.16,0,0,0-1.05-1c-1.81-1.27-3-.74-4,1.21a13.92,13.92,0,0,1-3.13,4.13c-1.51,1.33-2.72.72-2.85-1.33a46.61,46.61,0,0,1,.11-6c.18-2.7.56-5.39.68-8.09.09-2-.76-3.13-2.76-3.2a9.9,9.9,0,0,1-6.24-2.26,3,3,0,0,0-1.36-.58,3.14,3.14,0,0,1-2.86-3.29,7.93,7.93,0,0,0-.38-2.12c-1.09-3.06-.91-6.58-3.56-9.09-3.32-3.13-2.57-6.89.39-9.56A6.74,6.74,0,0,0,252.6,92a10.85,10.85,0,0,0-.42-3.1c-1-3.79,1.48-9.08,6.16-9.24a7.5,7.5,0,0,0,1.45-.33c3.23-.77,4.71.11,5.81,3.19.25.7,1.11,1.68,1.69,1.68,2.28,0,3.8,1.41,5.48,2.51,1.2.78,1.07,1.72-.22,2.39-1.08.56-2.23,1-3.3,1.56-2.68,1.44-4.82,7.5-3.7,10.39,0,0,.09.05.27.16,1.54-1.89,3-3.89,4.68-5.68,3.43-3.64,7-7.07,12.24-8.06a14.21,14.21,0,0,0,3-1,3,3,0,0,0,1.88-2.85,10.56,10.56,0,0,1,1.07-3.23c.94-2.15,2.27-4.18,2.88-6.42.91-3.31,2.08-4.11,5.32-2.71,1.19.51,1.69.07,1.79-1s.09-2.1.11-3.15c.06-2.73,1.14-3.76,3.91-3.71,2,0,2.79,1.06,2.81,3.61,0,1.73.61,2.1,2.3,1.66,1.86-.48,3.78-.75,5.62-1.28,1.39-.41,2.68-1.14,4-1.63a5.7,5.7,0,0,1,2.47-.53c1.84.24,2.92,1.75,3.06,4.17s-.09,4.9,2.12,6.64c.06,0,0,.21,0,.34l-1.53,1.25c1.89.18,3.29.34,4.7.45,2.43.18,2.88.46,3.57,2.7a11,11,0,0,0,4.27,5.75,6.83,6.83,0,0,1,1.62,1.4c2.42,3.47,2,4.36-1.08,5.75A3.23,3.23,0,0,0,334.6,97c.13,1.65.37,3.29.62,4.92s-.1,2.57-1.9,3c-3.8.92-6.51,3.62-9.29,6.14a2.9,2.9,0,0,0-.63,1.5c-.47,2.2.66,3.6,2.48,4.56,1.33.7,1.75,1.73,1,3-.61,1.09-1.56,2-2.18,3.07-2.11,3.65-4.76,3.43-8.19,1.78-3.65-1.76-9,.1-11.1,3.5l1.53-.17c2.46-.28,4.92-.74,7.39-.79,3.44-.08,3.88.45,4.25,3.81.23,2.13.88,2.66,3,2.4,2.52-.31,5-.63,7.56-1a10.59,10.59,0,0,0,1.75-.57l-.51-.26c.06-1-.27-2.41.26-2.91,2.23-2.1,4.45-4.19,8-4.21,2.33,0,4.66-.83,7-1.29l0-.5c-2.09-.38-4.18-.79-6.27-1.14-2.45-.41-3.18-1.09-3.84-3.43a3.63,3.63,0,0,0-1.16-1.7c-2.1-1.71-1.48-7.1,1-8.19a2.19,2.19,0,0,1,.79-.22,12.21,12.21,0,0,0,6.48-1.72,3.37,3.37,0,0,1,1.6-.36c2.26-.11,4.53-.31,6.79-.22a5.78,5.78,0,0,1,5.63,3.89c.18.48.43.92.64,1.38a1.39,1.39,0,0,0,.52-1.1,6.76,6.76,0,0,0-5.53-6.09,16.91,16.91,0,0,1-4.82-1.52,44.16,44.16,0,0,1-6-4.13c-.7-.55-1.54-1.65-1.41-2.34A3.18,3.18,0,0,1,342,94c2.67-.52,3.2-2.14,2.95-4.45-.06-.6.05-1.21,0-1.82-.22-3.56,2.63-5.52,4.24-8.12.29-.46,1.15-.6,1.78-.8s1.51-.36,2.24-.59c1.35-.43,2.29-.27,2.87,1.26a1.72,1.72,0,0,0,2.82.89,35.14,35.14,0,0,0,4.66-3.16,7.62,7.62,0,0,1,6-1.65c.65.06,1.63.42,1.82.9.67,1.7,2,1.68,3.39,1.65a21.92,21.92,0,0,1,3.14.1c1,.13,1.22-.23,1.43-1.21a11.38,11.38,0,0,1,1.75-4.51,23.36,23.36,0,0,1,4.46-3.91c1.48-1.13,1.71-1.88.68-3.45-1.33-2-2.95-3.61-5.66-3.32a4.49,4.49,0,0,1-1.31-.15c-2-.41-2.71-1.17-2.57-3.19.26-3.79-.47-5-5.11-5.22-.33,0-.66,0-1,0-2.3-.13-2.83-1.16-1.58-3.11a13.22,13.22,0,0,0,1.62-10.33c-.86-3.91.63-6.68,4.3-8.16a19.69,19.69,0,0,0,4.78-2.83c2.37-1.89,4.88-2.46,7.53-1a6.06,6.06,0,0,0,4.78.4c1.19-.33,1.5-1,1.45-2.17a72.45,72.45,0,0,1-.09-11.23c.25-2.14,1.8-4.16,2.88-6.17a2.23,2.23,0,0,1,1.41-.77A31.27,31.27,0,0,1,402,7.08a5.3,5.3,0,0,1,5.77,3.51,3.11,3.11,0,0,0,3.19,2.12c2.15,0,4.32-.09,6.46.08a4.51,4.51,0,0,0,4.89-2.87A4.09,4.09,0,0,1,426,7.47c2.37-.17,4.73-.42,7.1-.44,3,0,3.32.3,3.77,3.19a3.07,3.07,0,0,0,2.86,2.94c3.09.36,6.18.63,9-1.06a5.16,5.16,0,0,1,1.84-.73,12.92,12.92,0,0,1,2.32.08,14.69,14.69,0,0,1-.78,2.42c-.19.38-.79.55-1.2.82a7.26,7.26,0,0,0-1.66,1,4.28,4.28,0,0,1-3.89,1.36,32.22,32.22,0,0,0-3.47-.14,4.4,4.4,0,0,1-3.82-1.88,41.43,41.43,0,0,0-3.47-3.73,16.53,16.53,0,0,0-2.21-1.9c-.47-.33-1.34-.78-1.6-.59-1.84,1.36-4,2.63-4.19,5.22-.16,1.72-1,2.35-2.61,2.63a6.17,6.17,0,0,0-2.78,1.22,6.39,6.39,0,0,1-4.84,1.76,31.41,31.41,0,0,1-5-.84c-2.1-.56-2.88-.37-4,1.47a7.17,7.17,0,0,1-1.24,1.75c-1.29,1.09-1.35,2.13-.51,3.6,1.63,2.86.52,5.59-2.52,6.89a8.31,8.31,0,0,0-2,1.4c-.63.53-1.12,1.24-1.77,1.73-1.84,1.37-2,1.68-1,3.65,1.25,2.36,1.45,4.58-.23,6.83A12.07,12.07,0,0,0,397,48.38c-1,2.06-.54,3.2,1.48,4.13a6.87,6.87,0,0,0,8.32-1.67c3.51-4,7.28-3.84,10.44-1.4a12.58,12.58,0,0,1,5,10.72c0,1.21-.27,2.8-1.06,3.51-1.89,1.72-2.07,3.77-2.08,6,0,1.78.44,2.38,2.22,2.65,2.06.32,3.61-.66,5.07-1.94,1.86-1.63,4.95-1.44,5.7.6a12.57,12.57,0,0,0,3.76,5.08c.85.77,1.42,1.87.62,3-1.11,1.54-1,3.16-.83,4.91a20.13,20.13,0,0,1-.19,5.58,3.84,3.84,0,0,1-2.16,2.39,8,8,0,0,0-3.54,2.49c-3.22,3.7-7.6,3.13-8.6-1.34a7.72,7.72,0,0,0-5.59-6.2c-.66-.23-1.2-.8-1.86-1.07a3.48,3.48,0,0,0-1.86-.32c-2.3.49-4.58,1.11-6.86,1.68a2,2,0,0,1-2.73-1.4c-.14-.41-.69-1-.9-1a2.83,2.83,0,0,0-1.17,1,3.21,3.21,0,0,0-.4.9c-1.68,4.09-1.22,8.47-1.76,12.72,0,.07.19.18.06.06a24.52,24.52,0,0,1,2-4.73,28.71,28.71,0,0,1,4.06-4.36c1.24-1.19,7.28-.87,8.35.51a21.57,21.57,0,0,1,2.3,4c.49,1,.51,2.36,1.16,3.26,1.76,2.46,2,5.34,2.67,8.11.88,3.45-.23,5.95-3,8.1a12,12,0,0,0-3.13,4c-1.27,2.52-.36,4,2.31,4.82a3.56,3.56,0,0,1,2.21,1.65,42.51,42.51,0,0,1,1.37,6.61c.06.41-.47,1.1-.91,1.35-3.16,1.77-6.39,3.4-9.55,5.18a6.25,6.25,0,0,0-3.34,4.69,14,14,0,0,1-.9,2.66,2,2,0,0,1-2.65,1.28,22.06,22.06,0,0,0-3.88-.79c-3.25-.18-6.52-.23-9.78-.28-1.35,0-2.15-.47-2.39-1.93-.63-3.83-1.25-4.55-5.21-4.93a6.14,6.14,0,0,1-4.72-2.86c-2.07-2.91-7.39-2.43-9,.75a7.59,7.59,0,0,0-.52,5.62c.65,2.39-.17,3.5-2.52,3.77a46.57,46.57,0,0,0-4.76.53,2.77,2.77,0,0,0-1.76,1.47,26.61,26.61,0,0,0-1,4.51,5.76,5.76,0,0,0,.32,1.65c.73-.81,1.18-1.28,1.6-1.77,1.43-1.67,2.74-1.94,4.87-1.44a4.64,4.64,0,0,0,2.9-.4c1.4-.71,2.48-.77,3.51.52a6.79,6.79,0,0,0,1.1.91l.34-.29c-.2-.55-.4-1.1-.61-1.65-.9-2.37-1.19-4.59,1.08-6.47a3.55,3.55,0,0,0,.85-1.74c.35-1.24,1.09-1.39,2-.68a21.83,21.83,0,0,1,2.71,2.67,5.66,5.66,0,0,0,4.09,2.19c2,.14,2.38.94,1.31,2.61a55.73,55.73,0,0,1-4,5.44c-1.39,1.67-1.28,2.46.55,3.65a4.83,4.83,0,0,1,2.08,2.21,64.06,64.06,0,0,1,1.55,7.6c.22,1.37-.52,2.14-2,2.3-3.46.4-6.91.82-10.35,1.35-1.95.31-4,.59-5.14,2.57-1,1.72-1.91,3.49-3,5.13-1.38,2-2.67,4.13-4.84,5.59-1.53,1-1.32,3-1.67,4.73a.89.89,0,0,0,.71-.22c1.9-2.12,3.76-4.26,5.69-6.35a10.56,10.56,0,0,1,2.19-1.74,28.43,28.43,0,0,1,2.68-1.31,2,2,0,0,0,1.35-2.65c-.37-1.26.27-2,1.35-2.47a17.78,17.78,0,0,1,9.09-1.23,2.14,2.14,0,0,1,1.5,1.28c.47,1.78,1.72,2.1,3.25,2.21a12.75,12.75,0,0,1,3.58.51c2.2.85,4.3,1.93,6.42,3,1.05.52,2,1.24,3.56.1a6.28,6.28,0,0,0-1.54-1.21c-1.51-1-3-2.08-4.49-3.12-1.23-.86-2.35-1.88-1.86-3.54a3.69,3.69,0,0,1,3.5-2.62c1.92-.17,3.86-.19,5.79-.33,1-.07,1.93-.26,3.24-.44-2.32-.81-4.23-1.31-6-2.14a24.67,24.67,0,0,1-4.45-2.85,3.11,3.11,0,0,1-1.17-2,17.24,17.24,0,0,0-2.06-7.6c-.86-1.62-.53-2.67,1.24-3.3a21.84,21.84,0,0,1,7.16-1.64c1.43,0,2.84,1.64,4.26,2.54.09.06.17.14.27.2,2.66,1.87,5.4,1,6.57-2,.91-2.32,1.83-4.77,4.09-6.09,3.41-2,6.71-4.26,11-4.17a4.56,4.56,0,0,0,4.59-3.66,4.63,4.63,0,0,1,3.22-3.22,9.63,9.63,0,0,0,4-2.43c2.32-2.87,5.36-3.57,8.71-3.6a3.72,3.72,0,0,1,3.92,4,8.3,8.3,0,0,0,5.84,8.37,2.73,2.73,0,0,1,2.13,3.11,22.59,22.59,0,0,1-.79,3.7c-.56,1.84-.44,2.34,1.36,3.07a33.19,33.19,0,0,0,3.49,1c3,.82,3.85,2.7,2.47,5.34-1.17,2.25-2.37,4.49-3.67,6.67a14.08,14.08,0,0,0-1.42,11.37,58,58,0,0,1,1.25,7.79c0,.26-.2.56-.47,1.26a35.36,35.36,0,0,1-3.57-3.7,7.52,7.52,0,0,0-7.51-3.18c-4.34.45-8.68.86-13,1.32a22.63,22.63,0,0,0-2.27.46l0,.54a8.59,8.59,0,0,0,1.5.32c3.64.11,7.29.17,10.94.29s6.33,2.07,6.87,5.14a4.82,4.82,0,0,0,4.08,4.2,2.38,2.38,0,0,1,2.1,2.66c0,1.27.17,2.53.26,3.8l.52.17c.26-.36.44-.83.78-1a44.8,44.8,0,0,1,6.29-3.83c2.19-.95,3.56.13,3.88,2.54.11.82.13,1.65.17,2.48.06,1.24.1,2.72,1.46,3a4.61,4.61,0,0,0,3-.78c2.07-1.2,3-1,3.71,1.22a2.79,2.79,0,0,0,2.58,2.19c1.59.17,3.18.36,4.78.51,1,.1,2,.48,2,1.59-.06,2.24,1.35,3.48,2.74,4.84a19.24,19.24,0,0,1,5.48,9.3c.28,1.18.17,2.41,1.62,3,.33.13.53.94.54,1.44,0,5,0,10,0,14.93,0,1.18-.45,1.88-1.69,2-4.82.53-9.63,1.32-14.47,1.52-3.16.13-5.71.56-7.36,3.62-.89,1.64-2.33,1.83-3.79.64a10.52,10.52,0,0,1-3-3.44c-1.1-2.4-2.73-3.47-5.31-3.29a1.67,1.67,0,0,1-1.92-1.61c-.25-1.41-.66-2.8-.91-4.21a2.8,2.8,0,0,0-2.09-2.28c-2.83-1.05-5.4-2.36-6.61-5.53-.84-2.21-4.45-3.56-6.32-2.69-2.59,1.21-5.18,2.43-7.74,3.69s-4.76,1.57-7.22-.39c-2-1.58-4.43-2.9-7-2.52-5,.73-10,1.86-15,2.84a4.82,4.82,0,0,0-1,.48,20,20,0,0,0,5.28.34c2.81-.2,5.6-.62,8.4-.75.72,0,1.49.66,2.21,1.07a29.38,29.38,0,0,0,3,1.78c1.31.55,2.8.71,4.08,1.31,1.82.86,1.9,2.16.42,3.5-.46.41-.9.85-1.59,1.5a6.2,6.2,0,0,0,1.16.1c3.19-.57,6.37-1.23,9.57-1.72a33.14,33.14,0,0,1,5.76-.41,5,5,0,0,1,3.05,1,15.44,15.44,0,0,0,6.07,3.57c1.9.59,2.44,2.14,1.68,4-1.46,3.54-1.41,3.63,2.4,4,.82.08,1.68,0,2.48.14a37.42,37.42,0,0,1,4,1c1.15.37,2.24.93,3.39,1.28a3.73,3.73,0,0,1,2.94,3.22c.19,1.37.1,2.77.37,4.11a2.26,2.26,0,0,0,1.26,1.53c1.54.39,2.09-.25,1.88-1.89-.14-1.07-.39-2.4,1.22-2.26,2.22.2,4.52.35,6.21,2.27A12.59,12.59,0,0,0,481.49,255.4Zm-305.7-54-.22.74c-2.16.33-4.31.69-6.48,1-3.23.46-3.6.74-4.34,4a3.92,3.92,0,0,1-2.28,3,3.44,3.44,0,0,0-2.06,3.16c-.11,1.6-.14,3.2-.33,4.79a8.87,8.87,0,0,1-.75,2c-.67-.46-1.61-.76-2-1.39-.74-1.33-1.38-1.14-2.31-.31-.69.61-1.39,1.45-2.21,1.63-2.79.6-5.63,1-8.46,1.38-1.36.19-2.76.17-4.11.38-3.61.58-5.26,2.35-5.45,6a3.28,3.28,0,0,1-1.73,3,6.23,6.23,0,0,0-2.76,4,44.44,44.44,0,0,1-2.62,6.89,5.27,5.27,0,0,0,.11,5.47c1.45,2.47,2.77,5,4.16,7.53a5.81,5.81,0,0,0,.69.84l.44-.1c-.05-.65-.05-1.3-.17-1.94-.49-2.65-1-5.31-1.54-7.95a7.66,7.66,0,0,1,1.76-6.79c2.25-2.78,4.37-5.67,6.65-8.43a5.8,5.8,0,0,1,2.66-2.05,34.93,34.93,0,0,1,7.15-1c2.92-.09,5.21-.79,6.73-3.58,1.34-2.46,3.8-3.11,6.41-2,1,.4,1.39.13,1.35-.85,0-1.32-.15-2.63-.25-3.94a5.64,5.64,0,0,1,4.89-6.24c5.63-.79,11.24-.14,16.85.37a1.72,1.72,0,0,1,1,.46c1,1.12,1.36.42,2-.48a6,6,0,0,1,2.94-2.38,48.2,48.2,0,0,1,7.48-.72c1.3-.08,2,.65,2.58,1.89.36.83,1.3,1.4,1.93,2.13.48.55,1.33,1.21,1.27,1.74-.47,3.77-.11,7.83-3.67,10.59-1.28,1-1.23,2.42-.13,4.09.33-.41.63-.77.9-1.14,2.71-3.68,5.59-7.1,10.84-6.62a1.19,1.19,0,0,0,.33,0c2.48-.46,2.48-.46,3.05,2.12.45,2,1.49,3.21,3.2,3.27a10.8,10.8,0,0,1,6.81,2.65,8.87,8.87,0,0,0,1.57.87l.33-.43a58.48,58.48,0,0,0-5.71-5.73,5.85,5.85,0,0,1-2.57-4.7,13.81,13.81,0,0,0-.21-2.14,2.73,2.73,0,0,0-3.16-2.46c-1.1.07-2.21,0-3.32,0a2.81,2.81,0,0,1-2.76-1.73c-.84-1.8-1.87-3.52-2.6-5.36s-2.12-2.55-4.13-2.52a68,68,0,0,1-11.07-.27,129.57,129.57,0,0,1-13.35-3.19c-2.3-.6-3.15-2.11-3.61-4.43a36.13,36.13,0,0,0-2.2-7.24c-1.11-2.56-3.14-3.06-5.63-1.77a20.83,20.83,0,0,0-2.29,1.33,8.93,8.93,0,0,1-5.44,1.7,5.24,5.24,0,0,0-1.34.33l.11.54c2.88-.23,5.77-.41,8.64-.71,1.54-.16,2.51.36,2.79,1.87s.48,3,.64,4.58a2.68,2.68,0,0,0,1.85,2.45A18,18,0,0,1,175.79,201.39Zm162.91,8.22.25-.24c-1.6-3.31-3.25-6.59-4.76-9.94a4.17,4.17,0,0,0-3.43-2.74c-2.46-.3-4.92-.63-7.39-.76a4.42,4.42,0,0,1-3.53-1.46,2,2,0,0,0-2.65-.52c-2,.91-3,.57-4.15-1.25a9.35,9.35,0,0,1-1.17-2.37c-.81-3.07-3.1-4.28-5.89-4.87-2.11-.45-3.32.23-3.84,2.34a3.49,3.49,0,0,1-3.45,3,2.8,2.8,0,0,0-2,1.14,63.2,63.2,0,0,0-3.14,7.61c-1,3.06-2,4.06-5.16,4.43-2.23.26-2.43.83-1.71,2.95a41.56,41.56,0,0,1,1.41,6c.26,1.44-.44,2.29-1.85,2.89-2.26,1-3.2,3.1-4.51,5.48,2.14,0,3.52-.93,5-1.59,4-1.79,6-4.67,5.17-9.2a2.07,2.07,0,0,1,1.66-2.5,14.71,14.71,0,0,0,2.24-.57c.88-.44,2-.95,2.38-1.74a23.61,23.61,0,0,0,1.56-5.51,4.23,4.23,0,0,1,6.74-3,1.91,1.91,0,0,1,.71,1.34c0,2.33.85,3.58,3.12,3.77a19.17,19.17,0,0,0,5.87-.35,36.2,36.2,0,0,0,5.5-2.25c1.47-.62,2.7-.19,4,.59a20,20,0,0,0,5.52,2.41,6.36,6.36,0,0,1,4.14,2.69C336.39,206.85,337.58,208.21,338.7,209.61ZM.57,205.43c0,.87-.11,1.44-.11,2,0,5.47,0,10.95,0,16.42,0,.73.33,2,.68,2.08a4.46,4.46,0,0,0,2.92-.39c2.06-1.29,3.39-.79,3.65,1.67A29.07,29.07,0,0,1,8,231.37c-.12,3.15,1.29,5.45,3.59,7.46a39.61,39.61,0,0,1,3.87,4.28,1.66,1.66,0,0,1,.31,1.22C15.4,246.21,14.92,248,13,249c-.43.22-1,.56-1.1,1-.59,2.16-1.19,4.27-3.67,5.3a66,66,0,0,0,8.68.19c.38,0,1-1,1-1.48a24.2,24.2,0,0,0-.23-5.09c-.39-2.16-.29-2.87,1.59-4a8.57,8.57,0,0,0,3.61-4.17,4.74,4.74,0,0,1,6.36-2.48,2.65,2.65,0,0,1,1.69,3.7c-.77,2.4-.44,3,2,3.32,1.76.26,3.52.44,4.64,2.15a1.15,1.15,0,0,0,1.1.07,13.43,13.43,0,0,0,1.94-2.65c.48-.93,0-1.62-1-1.77s-2.2-.25-3.29-.42a3.27,3.27,0,0,1-3.07-3,8.3,8.3,0,0,0-.31-2.28c-.58-1.26-1.11-2.77-2.14-3.54-2.31-1.71-8-.71-9.53,1.75-1.24,2-3,2.85-5.2,3.71-.68-1.82-1.69-3.58-1.94-5.44-.39-2.85-.57-5.74,1.82-8.18s1.31-5.14-1.91-5.8c-2.59-.53-2.89-.79-3.27-3.39a2.06,2.06,0,0,0-2.36-2,6.06,6.06,0,0,0-1.9.46c-1.9.73-3.37.09-3.72-1.91a16.54,16.54,0,0,1-.08-4.1A3.06,3.06,0,0,0,.57,205.43ZM113.91,242.2l.75.27c.42-1.25.91-2.48,1.22-3.76a24.35,24.35,0,0,0,.57-3.59,54.76,54.76,0,0,0,.41-6.08,2.87,2.87,0,0,0-3.1-3c-1.77-.06-3.53-.06-5.3,0-.54,0-1.31,0-1.56.36-1.59,2-3.54,1.72-5.62,1.11a6.79,6.79,0,0,0-1.82-.1c-3.06,0-3.32.33-2.94,3.35a2.24,2.24,0,0,1-.74,1.85,11.37,11.37,0,0,1-3.27,1.1,1.4,1.4,0,0,1-1.14-.58c-1.84-3-3.68-6-5.39-9a5.89,5.89,0,0,0-5.3-3.07,2.83,2.83,0,0,0-3.19,2.22,31.31,31.31,0,0,1-1.62,3.23c-1.4,2.92-3,5.77-4.11,8.8s-1.76,3.89-5.2,4.39c-1.69.25-2.08,1.13-1.1,2.46,1.59,2.15,1.55,2.34,0,4.62-.42.63-.89,1.79-.61,2.22,1.28,1.9,2.82,3.63,4.27,5.41l.62-.37a24.14,24.14,0,0,0-.7-2.41c-1.42-3.52-1.44-3.53,2.08-5.13,1.24-.57,1.44-1.3.47-2.27a2.48,2.48,0,0,1-.48-3.05c.5-1,1.25-1.93,1.81-2.93s1.07-2,1.53-3a64.24,64.24,0,0,1,3-6.59c1.22-2,3-2.23,4.72-.6a7.47,7.47,0,0,1,2,3.43c1.3,5,2.65,6.17,7.84,6.22,1.33,0,2.65,0,4,0,1.16,0,1.9.45,2,1.71a7.12,7.12,0,0,0,.47,1.33,18.59,18.59,0,0,0,1.47-2.27c.6-1.36,1.09-2.77,1.61-4.17,1-2.74,2-3.13,4.78-2.38a8.92,8.92,0,0,0,4.19.13c2.26-.53,4.32.27,4.58,2.54a22.21,22.21,0,0,1-.39,5.37A11.08,11.08,0,0,1,113.91,242.2Zm278.58-39.94.67-.1c.63-1.56,1.65-3.1,1.77-4.7.16-2,.16-2.52,2.22-2.81a17.26,17.26,0,0,1,2.32-.12,11.69,11.69,0,0,0,7.7-2.57c1.21-1,2.35-.74,3.34.4a9.09,9.09,0,0,1,2.21,5.76c.11,2.47.68,2.88,3,2.89a44.24,44.24,0,0,1,5.28.17,2.91,2.91,0,0,1,2.05,1.28c.2.44-.48,1.51-1,2-1.3,1.19-2.81,2.15-4.13,3.33a13.2,13.2,0,0,0-1.62,2.15l.45.36c.31-.19.62-.37.92-.57,2.14-1.44,4.27-2.92,6.43-4.32,1.16-.75,2.46-1.28,3.58-2.07,1.64-1.15,1.55-2.83-.14-3.82a5.23,5.23,0,0,1-2.91-3.8c-.15-1.06-.82-1.43-1.8-1.63-2.87-.58-2.91-.62-3.28-3.46-.18-1.4-.94-2.33-2.29-2a12.64,12.64,0,0,1-7.92-.68,5.15,5.15,0,0,0-2.11-.35c-.58,0-1.44.29-1.65.71-1.23,2.41-3.38,3-5.72,2.82s-4.24.16-5.8,2c-.72.86-1.46.57-1.94-.39s-.93-1.88-1.42-2.81c-2.39-4.55-2.63-4.65-7.69-3.41a7.18,7.18,0,0,0-.8.22c-1.49.54-3.52,3.85-3.23,5.39.07.37.45.69.69,1l.92-.76a15.51,15.51,0,0,1,2.94-2.42c2-1,2.94-.25,3.15,2a34,34,0,0,0,.47,3.94c.12.57.62,1.44,1.06,1.52C390.82,198,392.69,199,392.49,202.26ZM238.11,255.34c0-.76,0-1.34,0-1.92A3.71,3.71,0,0,1,240,249.8a18.07,18.07,0,0,1,1.75-.94,4.94,4.94,0,0,0,3-4.39,16.12,16.12,0,0,1,1-4c.17-.5.85-1.25,1.17-1.19,1.8.32,3.81.48,5.28,1.42a3.42,3.42,0,0,0,3.43.56c4-1.45,8-3.06,12.51-2.62a3.68,3.68,0,0,1,3.59,2.58c.26.74.59,1.45.89,2.17l.45-.11a17.4,17.4,0,0,0-.36-7.27c-.8-2.45-2-3-4.55-2.44-5,1-10,1.88-15.09,2.7a6.81,6.81,0,0,1-2.54-.55,25.21,25.21,0,0,0-3.49-.95c-2.34-.27-2.76,0-3.62,2.22-.69,1.75-1.21,3.57-2,5.26-.39.83-1.19,2-1.88,2.08-2.81.21-3.83,2.39-5.17,4.22-1.14,1.56-.79,3.38-.08,4.91C234.92,254.8,236.46,255.12,238.11,255.34ZM213.36,142.54l.61,0c.18-1.44.37-2.87.52-4.31.31-2.91.77-3.44,3.53-4.22a6.33,6.33,0,0,0,2.26-1,7.17,7.17,0,0,1,4.63-1.49,33.4,33.4,0,0,0,3.47-.19c2.11-.25,2.6,0,3.38,2a8.62,8.62,0,0,0,3.14,4.33A5,5,0,0,1,237,140c.44,1.8.88,3.14,3.11,2.76.26,0,.59.27.88.42,2.24,1.13,4.61,2.1,5.71,4.73a4.36,4.36,0,0,0-1.89-4c-1.52-1.15-2.86-2.54-4.28-3.83a6.38,6.38,0,0,0-1.34-1.19,4,4,0,0,1-2.16-2.94c-.72-2.65-1.8-5-4.33-6.61a5.76,5.76,0,0,1-2-2.86c-1-2.77-2.15-3.19-4.15-1.13a8.25,8.25,0,0,1-6.94,2.84c-.71-.06-1.43-.05-2.15-.08-2.91-.09-4.5,1.26-4.64,4.15-.12,2.7-.09,5.41,0,8.11A8.68,8.68,0,0,0,213.36,142.54ZM25.14,177.2l.31-.42c-.15-.38-.29-.77-.46-1.14-1.09-2.33-2.14-4.69-3.31-7A4.93,4.93,0,0,0,20,166.53a23.19,23.19,0,0,0-4.91-2,4,4,0,0,1-2.92-2.41,3.55,3.55,0,0,0-2.85-2.21c-3.92-.84-5.73,2.39-8.11,4.29-.77.62-.59,2.5-.71,3.82,0,.46.19,1.25.49,1.36a2,2,0,0,0,1.5-.39,4.1,4.1,0,0,0,1.16-1.36c1.38-2.5,2.48-3.06,5.24-2.34.64.17,1.52.77,1.63,1.31s-.61,1.23-1,1.8-1.53,1.24-1.59,1.91c-.2,2.4-.08,4.82-.08,7.23l.42,0c.18-1.39.33-2.79.56-4.17.55-3.43,3.39-5.55,7.2-5.41,2.69.1,3.39,1.09,3.75,5.32a2.84,2.84,0,0,0,.06.66c.11.31.2.75.43.86C21.83,175.67,23.49,176.42,25.14,177.2Zm102.45,16.89c1.59-3,4-4.05,7-4.29a3.48,3.48,0,0,0,2.24-1.82c1.5-3,3.82-3.78,7-2.7,3,1,6.27,1.5,9.42,2.21l.21-.66a15.13,15.13,0,0,0-3.3-1.75c-2.38-.59-3.52-2.21-4.52-4.23a7.19,7.19,0,0,0-2.28-2.47c-1.13-.8-2.12-.49-2.43,1a2.8,2.8,0,0,1-2.5,2.28,27.06,27.06,0,0,0-4.59,1.39c-.6.25-1,1-1.46,1.59-.66.75-1.18,1.79-2,2.18C128.36,187.84,126.7,191.41,127.59,194.09Zm10.22-64.72a23.38,23.38,0,0,0-3.7-.12,2,2,0,0,1-2.53-1.53,12.22,12.22,0,0,0-.65-1.7c-1.51-3-4.62-3.41-6.7-.8a6.61,6.61,0,0,1-3.59,2.41c-1.85.51-2.76,1.67-2.37,3.25.54,2.22,1.51,4.33,2.17,6.52a6.28,6.28,0,0,1,.15,2.59,14.08,14.08,0,0,1-.92,2.58,5.37,5.37,0,0,0,3-7.68,19.65,19.65,0,0,0-2.11-3c-1-1.15-.56-1.68.67-2.12a22.48,22.48,0,0,0,3.63-1.56c2.46-1.43,4-1,5,1.73.19.51.25,1.24.62,1.49a2.82,2.82,0,0,0,2.08.56C134.21,131.36,135.78,130.42,137.81,129.36Zm19.35-47.69.71-.27c-.26-2.12-.5-4.25-.81-6.36a1.16,1.16,0,0,0-.63-.71c-2-.88-3.92-1.74-5.91-2.53a2.58,2.58,0,0,0-3.24.83,3.6,3.6,0,0,1-1.94,1.08c-1.67.34-3.41.36-5.06.77A3.63,3.63,0,0,0,138,76.07a31.93,31.93,0,0,0-1.92,5.79,6.4,6.4,0,0,0,.41,2.4l.66-.06c.32-1.49.56-3,1-4.45.2-.66.68-1.56,1.22-1.73,3.31-1,6.65-1.94,10-2.75a3.45,3.45,0,0,1,2.17.46C154.1,77.05,156.65,78.35,157.16,81.67ZM62.62,111.16a2.53,2.53,0,0,0-2.88,1.62c-1,2.56-1.54,5.15,0,7.72.31-1.63.15-3.34.59-4.88A24.53,24.53,0,0,1,62.62,111.16ZM2.94,193.55l.46-.11c.48-2.08-1.58-9.69-3.3-10.3.45,1.67.79,3,1.17,4.38.26.89.61,1.74.86,2.63C2.45,191.27,2.68,192.41,2.94,193.55Z"/>
                <path fill="url(#grad1)" class="cls-2"
                      d="M481.49,255.4a12.59,12.59,0,0,1-2.53-1.76c-1.69-1.92-4-2.07-6.21-2.27-1.61-.14-1.35,1.19-1.22,2.26.21,1.65-.34,2.29-1.88,1.89a2.26,2.26,0,0,1-1.26-1.53c-.27-1.34-.19-2.75-.37-4.11a3.73,3.73,0,0,0-2.94-3.22c-1.16-.34-2.24-.91-3.39-1.28a37.42,37.42,0,0,0-4-1c-.8-.16-1.66-.05-2.48-.14-3.81-.39-3.86-.48-2.4-4,.76-1.84.22-3.4-1.68-4a15.44,15.44,0,0,1-6.07-3.57,5,5,0,0,0-3.05-1,33.14,33.14,0,0,0-5.76.41c-3.2.49-6.38,1.14-9.57,1.72a6.2,6.2,0,0,1-1.16-.1c.69-.65,1.13-1.09,1.59-1.5,1.48-1.34,1.39-2.64-.42-3.5-1.28-.61-2.76-.76-4.08-1.31a29.38,29.38,0,0,1-3-1.78c-.72-.41-1.49-1.1-2.21-1.07-2.81.13-5.6.55-8.4.75a20,20,0,0,1-5.28-.34,4.82,4.82,0,0,1,1-.48c5-1,9.95-2.11,15-2.84,2.6-.38,5.06.94,7,2.52,2.45,2,4.72,1.62,7.22.39s5.15-2.48,7.74-3.69c1.88-.87,5.48.48,6.32,2.69,1.21,3.17,3.79,4.48,6.61,5.53a2.8,2.8,0,0,1,2.09,2.28c.26,1.41.66,2.8.91,4.21a1.67,1.67,0,0,0,1.92,1.61c2.58-.18,4.21.89,5.31,3.29a10.52,10.52,0,0,0,3,3.44c1.47,1.19,2.91,1,3.79-.64,1.65-3.06,4.2-3.48,7.36-3.62,4.84-.2,9.65-1,14.47-1.52,1.24-.14,1.69-.84,1.69-2,0-5,0-10,0-14.93,0-.5-.21-1.32-.54-1.44-1.45-.58-1.34-1.81-1.62-3a19.24,19.24,0,0,0-5.48-9.3c-1.4-1.37-2.8-2.61-2.74-4.84,0-1.11-1-1.49-2-1.59-1.59-.16-3.19-.34-4.78-.51a2.79,2.79,0,0,1-2.58-2.19c-.68-2.22-1.64-2.42-3.71-1.22a4.61,4.61,0,0,1-3,.78c-1.36-.33-1.4-1.81-1.46-3,0-.83-.06-1.66-.17-2.48-.32-2.41-1.69-3.49-3.88-2.54a44.8,44.8,0,0,0-6.29,3.83c-.34.22-.52.69-.78,1l-.52-.17c-.09-1.27-.25-2.53-.26-3.8a2.38,2.38,0,0,0-2.1-2.66,4.82,4.82,0,0,1-4.08-4.2c-.54-3.08-3.33-5-6.87-5.14s-7.29-.18-10.94-.29a8.59,8.59,0,0,1-1.5-.32l0-.54a22.63,22.63,0,0,1,2.27-.46c4.34-.46,8.68-.87,13-1.32a7.52,7.52,0,0,1,7.51,3.18,35.36,35.36,0,0,0,3.57,3.7c.27-.69.51-1,.47-1.26a58,58,0,0,0-1.25-7.79,14.08,14.08,0,0,1,1.42-11.37c1.3-2.18,2.5-4.42,3.67-6.67,1.38-2.65.48-4.52-2.47-5.34a33.19,33.19,0,0,1-3.49-1c-1.8-.73-1.92-1.23-1.36-3.07a22.59,22.59,0,0,0,.79-3.7,2.73,2.73,0,0,0-2.13-3.11,8.3,8.3,0,0,1-5.84-8.37,3.72,3.72,0,0,0-3.92-4c-3.35,0-6.39.73-8.71,3.6a9.63,9.63,0,0,1-4,2.43,4.63,4.63,0,0,0-3.22,3.22,4.56,4.56,0,0,1-4.59,3.66c-4.29-.09-7.58,2.19-11,4.17-2.26,1.32-3.18,3.77-4.09,6.09-1.17,3-3.91,3.89-6.57,2-.09-.06-.17-.14-.27-.2-1.42-.9-2.83-2.53-4.26-2.54a21.84,21.84,0,0,0-7.16,1.64c-1.77.63-2.11,1.68-1.24,3.3a17.24,17.24,0,0,1,2.06,7.6,3.11,3.11,0,0,0,1.17,2,24.67,24.67,0,0,0,4.45,2.85c1.76.83,3.68,1.33,6,2.14-1.31.18-2.27.37-3.24.44-1.93.14-3.86.16-5.79.33a3.69,3.69,0,0,0-3.5,2.62c-.49,1.66.63,2.68,1.86,3.54,1.49,1,3,2.09,4.49,3.12a6.28,6.28,0,0,1,1.54,1.21c-1.52,1.14-2.51.42-3.56-.1-2.12-1-4.22-2.12-6.42-3a12.75,12.75,0,0,0-3.58-.51c-1.53-.12-2.78-.43-3.25-2.21a2.14,2.14,0,0,0-1.5-1.28,17.78,17.78,0,0,0-9.09,1.23c-1.08.51-1.73,1.21-1.35,2.47a2,2,0,0,1-1.35,2.65,28.43,28.43,0,0,0-2.68,1.31,10.56,10.56,0,0,0-2.19,1.74c-1.93,2.08-3.8,4.23-5.69,6.35a.89.89,0,0,1-.71.22c.35-1.68.14-3.7,1.67-4.73,2.18-1.46,3.46-3.55,4.84-5.59,1.11-1.64,2-3.41,3-5.13,1.15-2,3.19-2.27,5.14-2.57,3.44-.53,6.89-1,10.35-1.35,1.44-.17,2.18-.93,2-2.3a64.06,64.06,0,0,0-1.55-7.6,4.83,4.83,0,0,0-2.08-2.21c-1.83-1.19-1.94-2-.55-3.65a55.73,55.73,0,0,0,4-5.44c1.08-1.67.68-2.47-1.31-2.61a5.66,5.66,0,0,1-4.09-2.19,21.83,21.83,0,0,0-2.71-2.67c-.87-.71-1.61-.56-2,.68a3.55,3.55,0,0,1-.85,1.74c-2.26,1.88-2,4.11-1.08,6.47.21.55.41,1.1.61,1.65l-.34.29a6.79,6.79,0,0,1-1.1-.91c-1-1.28-2.11-1.22-3.51-.52a4.64,4.64,0,0,1-2.9.4c-2.12-.49-3.44-.23-4.87,1.44-.42.49-.86,1-1.6,1.77a5.76,5.76,0,0,1-.32-1.65,26.61,26.61,0,0,1,1-4.51,2.77,2.77,0,0,1,1.76-1.47,46.57,46.57,0,0,1,4.76-.53c2.35-.27,3.17-1.37,2.52-3.77a7.59,7.59,0,0,1,.52-5.62c1.59-3.18,6.91-3.66,9-.75a6.14,6.14,0,0,0,4.72,2.86c4,.38,4.58,1.1,5.21,4.93.24,1.46,1,1.91,2.39,1.93,3.26,0,6.52.1,9.78.28a22.06,22.06,0,0,1,3.88.79,2,2,0,0,0,2.65-1.28,14,14,0,0,0,.9-2.66,6.25,6.25,0,0,1,3.34-4.69c3.15-1.78,6.39-3.41,9.55-5.18.44-.25,1-.94.91-1.35a42.51,42.51,0,0,0-1.37-6.61,3.56,3.56,0,0,0-2.21-1.65c-2.67-.83-3.57-2.3-2.31-4.82a12,12,0,0,1,3.13-4c2.74-2.16,3.86-4.66,3-8.1-.71-2.77-.91-5.65-2.67-8.11-.65-.9-.66-2.22-1.16-3.26a21.57,21.57,0,0,0-2.3-4c-1.07-1.38-7.1-1.7-8.35-.51a28.71,28.71,0,0,0-4.06,4.36,24.52,24.52,0,0,0-2,4.73c.13.11-.07,0-.06-.06.54-4.25.08-8.64,1.76-12.72a3.21,3.21,0,0,1,.4-.9,2.83,2.83,0,0,1,1.17-1c.2-.06.76.57.9,1a2,2,0,0,0,2.73,1.4c2.28-.57,4.56-1.2,6.86-1.68a3.48,3.48,0,0,1,1.86.32c.66.26,1.2.84,1.86,1.07a7.72,7.72,0,0,1,5.59,6.2c1,4.47,5.37,5,8.6,1.34a8,8,0,0,1,3.54-2.49,3.84,3.84,0,0,0,2.16-2.39,20.13,20.13,0,0,0,.19-5.58c-.13-1.75-.28-3.37.83-4.91.8-1.1.23-2.2-.62-3A12.57,12.57,0,0,1,432.11,71c-.75-2-3.84-2.23-5.7-.6-1.47,1.28-3,2.26-5.07,1.94-1.78-.28-2.23-.87-2.22-2.65,0-2.24.19-4.3,2.08-6,.78-.71,1-2.3,1.06-3.51a12.58,12.58,0,0,0-5-10.72c-3.16-2.45-6.93-2.6-10.44,1.4a6.87,6.87,0,0,1-8.32,1.67c-2-.93-2.43-2.07-1.48-4.13a12.07,12.07,0,0,1,1.11-2.22c1.68-2.25,1.48-4.47.23-6.83-1-2-.86-2.28,1-3.65.66-.49,1.14-1.19,1.77-1.73a8.31,8.31,0,0,1,2-1.4c3-1.3,4.15-4,2.52-6.89-.84-1.47-.78-2.51.51-3.6a7.17,7.17,0,0,0,1.24-1.75c1.14-1.84,1.91-2,4-1.47a31.41,31.41,0,0,0,5,.84,6.39,6.39,0,0,0,4.84-1.76A6.17,6.17,0,0,1,424,16.7c1.58-.29,2.45-.91,2.61-2.63.24-2.59,2.35-3.86,4.19-5.22.26-.19,1.13.26,1.6.59a16.53,16.53,0,0,1,2.21,1.9,41.43,41.43,0,0,1,3.47,3.73A4.4,4.4,0,0,0,441.89,17a32.22,32.22,0,0,1,3.47.14,4.28,4.28,0,0,0,3.89-1.36,7.26,7.26,0,0,1,1.66-1c.42-.26,1-.44,1.2-.82a14.69,14.69,0,0,0,.78-2.42,12.92,12.92,0,0,0-2.32-.08,5.16,5.16,0,0,0-1.84.73c-2.87,1.69-6,1.42-9,1.06a3.07,3.07,0,0,1-2.86-2.94C436.37,7.32,436,7,433.05,7c-2.37,0-4.73.27-7.1.44a4.09,4.09,0,0,0-3.66,2.46,4.51,4.51,0,0,1-4.89,2.87c-2.14-.17-4.31-.06-6.46-.08a3.11,3.11,0,0,1-3.19-2.12A5.3,5.3,0,0,0,402,7.08a31.27,31.27,0,0,0-4.25.68,2.23,2.23,0,0,0-1.41.77c-1.08,2-2.63,4-2.88,6.17a72.45,72.45,0,0,0,.09,11.23c0,1.21-.27,1.84-1.45,2.17a6.06,6.06,0,0,1-4.78-.4c-2.65-1.42-5.16-.84-7.53,1A19.69,19.69,0,0,1,375,31.57c-3.67,1.49-5.16,4.25-4.3,8.16a13.22,13.22,0,0,1-1.62,10.33c-1.25,2-.72,3,1.58,3.11.33,0,.66,0,1,0,4.64.24,5.37,1.43,5.11,5.22-.14,2,.58,2.78,2.57,3.19a4.49,4.49,0,0,0,1.31.15c2.71-.29,4.33,1.27,5.66,3.32,1,1.57.8,2.32-.68,3.45a23.36,23.36,0,0,0-4.46,3.91A11.38,11.38,0,0,0,379.39,77c-.21,1-.41,1.34-1.43,1.21a21.92,21.92,0,0,0-3.14-.1c-1.42,0-2.72.05-3.39-1.65-.19-.47-1.17-.84-1.82-.9a7.62,7.62,0,0,0-6,1.65,35.14,35.14,0,0,1-4.66,3.16,1.72,1.72,0,0,1-2.82-.89c-.58-1.53-1.53-1.69-2.87-1.26-.74.24-1.51.35-2.24.59s-1.49.34-1.78.8c-1.62,2.59-4.47,4.56-4.24,8.12,0,.6-.08,1.22,0,1.82.25,2.31-.28,3.93-2.95,4.45a3.18,3.18,0,0,0-2,2.14c-.13.68.71,1.79,1.41,2.34a44.16,44.16,0,0,0,6,4.13,16.91,16.91,0,0,0,4.82,1.52,6.76,6.76,0,0,1,5.53,6.09,1.39,1.39,0,0,1-.52,1.1c-.22-.46-.47-.91-.64-1.38A5.78,5.78,0,0,0,351,106c-2.26-.09-4.53.11-6.79.22a3.37,3.37,0,0,0-1.6.36,12.21,12.21,0,0,1-6.48,1.72,2.19,2.19,0,0,0-.79.22c-2.48,1.09-3.09,6.48-1,8.19a3.63,3.63,0,0,1,1.16,1.7c.66,2.34,1.38,3,3.84,3.43,2.1.35,4.18.76,6.27,1.14l0,.5c-2.33.46-4.66,1.27-7,1.29-3.51,0-5.74,2.11-8,4.21-.53.5-.19,1.92-.26,2.91l.51.26a10.59,10.59,0,0,1-1.75.57c-2.52.37-5,.7-7.56,1-2.15.26-2.79-.27-3-2.4-.36-3.35-.8-3.88-4.25-3.81-2.47.06-4.93.51-7.39.79l-1.53.17c2.11-3.4,7.45-5.26,11.1-3.5,3.43,1.66,6.08,1.87,8.19-1.78.63-1.08,1.57-2,2.18-3.07.72-1.28.29-2.3-1-3-1.81-1-2.94-2.35-2.48-4.56a2.9,2.9,0,0,1,.63-1.5c2.78-2.52,5.5-5.22,9.29-6.14,1.8-.43,2.14-1.41,1.9-3s-.49-3.27-.62-4.92a3.23,3.23,0,0,1,2.09-3.42c3.08-1.39,3.5-2.28,1.08-5.75a6.83,6.83,0,0,0-1.62-1.4,11,11,0,0,1-4.27-5.75c-.68-2.24-1.14-2.52-3.57-2.7-1.41-.11-2.81-.26-4.7-.45l1.53-1.25c0-.13,0-.29,0-.34-2.21-1.74-2-4.23-2.12-6.64s-1.22-3.93-3.06-4.17a5.7,5.7,0,0,0-2.47.53c-1.37.5-2.66,1.23-4,1.63-1.84.54-3.76.8-5.62,1.28-1.7.44-2.29.07-2.3-1.66,0-2.55-.82-3.57-2.81-3.61-2.77-.05-3.85,1-3.91,3.71,0,1.05,0,2.1-.11,3.15s-.6,1.55-1.79,1c-3.25-1.4-4.41-.6-5.32,2.71-.61,2.23-1.94,4.27-2.88,6.42a10.56,10.56,0,0,0-1.07,3.23,3,3,0,0,1-1.88,2.85,14.21,14.21,0,0,1-3,1c-5.21,1-8.81,4.41-12.24,8.06-1.69,1.79-3.14,3.8-4.68,5.68-.18-.11-.25-.12-.27-.16-1.12-2.89,1-9,3.7-10.39,1.07-.58,2.22-1,3.3-1.56,1.29-.67,1.42-1.61.22-2.39-1.68-1.1-3.2-2.52-5.48-2.51-.57,0-1.44-1-1.69-1.68-1.1-3.08-2.58-4-5.81-3.19a7.5,7.5,0,0,1-1.45.33c-4.68.16-7.12,5.45-6.16,9.24a10.85,10.85,0,0,1,.42,3.1,6.74,6.74,0,0,1-2.21,5.11c-3,2.67-3.71,6.43-.39,9.56,2.66,2.51,2.47,6,3.56,9.09a7.93,7.93,0,0,1,.38,2.12,3.14,3.14,0,0,0,2.86,3.29,3,3,0,0,1,1.36.58A9.9,9.9,0,0,0,264.4,124c2,.07,2.85,1.16,2.76,3.2-.12,2.7-.51,5.39-.68,8.09a46.61,46.61,0,0,0-.11,6c.13,2,1.34,2.66,2.85,1.33a13.92,13.92,0,0,0,3.13-4.13c1-2,2.17-2.48,4-1.21a3.16,3.16,0,0,1,1.05,1c1.39,2.76,4,3.66,6.67,4.48.42.13.85.24,1.27.38,3,1,2.88,1,2.32,4a4.41,4.41,0,0,0,.56,2.77c1.28,2.19,2.77,4.26,4.14,6.4a17.65,17.65,0,0,1,.9,1.82c-.28.17-.41.3-.46.28-3.2-1.68-6.91-2.71-7.61-7.19-.6-3.83-4.65-7-8.52-7.13h-1.16c-3.66,0-3.88.16-5.12,3.63-1,2.71-2.39,4.88-5.4,5.81-2.2.68-3.6,4.15-2.9,6.57a19.29,19.29,0,0,0,1.23,3.25,29.94,29.94,0,0,0,1.84,2.85c-.64.12-1.2.27-1.78.31a3,3,0,0,0-2.77,2A3.18,3.18,0,0,1,259,170a17.23,17.23,0,0,1-4,1.13c-3.78.55-5.59,3-6.53,6.4-.12.42-.18.86-.3,1.28,0,.08-.16.13-.08.07-1.4-1.56-2.76-3.1-4.15-4.62a2.41,2.41,0,0,1-.2-2.92c1.56-3.53,4.48-5.5,7.86-7,1-.44,2.07-.78,3.07-1.26,2.07-1,2.49-1.86,2-4.12-.19-.85-.71-1.63-.87-2.49s-.36-1.93.05-2.46a61.75,61.75,0,0,1,4.63-5.12,20.26,20.26,0,0,1,1.85-1.4c1.56-1.28,1.73-1.91.67-3.67-1.27-2.1-.48-4.25-.21-6.31.81-6.2.06-7.36-6.08-8.55-.54-.1-1.09-.19-1.64-.25a5,5,0,0,1-4.61-3.83c-1.12-3.51-2.65-6.89-3.87-10.37a51.62,51.62,0,0,1-1.44-5.62,2.37,2.37,0,0,0-2.2-2.1c-2.24-.26-4.48-.61-6.73-.85-1.5-.16-2-1-2.17-2.42-.56-3.64-1.15-7.29-2-10.88a5.15,5.15,0,0,0-4-4.2c-1.09-.23-1.33-.94-1.31-2,.07-4.49,0-4.44-4.37-4.5a9.6,9.6,0,0,0-6.62,2.06,5.31,5.31,0,0,1-6.63-.26A45.06,45.06,0,0,1,203.89,78c-.88-1.15-1.71-2-3.22-1.88-.83.06-1.66,0-2.48.15-2.18.32-2.86.94-3.27,3.11-.36,1.93-.65,3.88-2.48,5a4.17,4.17,0,0,1-2.1.8c-3.25-.07-6.49-.28-9.74-.45a5.23,5.23,0,0,1-.79-.16c1.09-1.82,4.27-2.74,6.29-1.88.76.32,1.47.77,2.23,1.09,1.57.67,2.4.42,3-1.19a8.67,8.67,0,0,0,.81-3.82c-.42-3.79-1.79-7-5.52-9-1.24-.65-2.21-2.5-2.58-4A73.64,73.64,0,0,1,183,57.61a11.53,11.53,0,0,0-.4-1.78c-.6-2-1.15-2.43-3.22-2.19-1.7.2-3.4.43-5.09.7-1,.16-1.75-.15-2-1.24-.31-1.58-1.36-2-2.81-1.88q-4.28.5-8.55,1.07a2.26,2.26,0,0,0-2.16,2.47c0,1,.18,2.09.17,3.14a32,32,0,0,1-.23,4.93,2.23,2.23,0,0,1-3,2.06,19.53,19.53,0,0,0-2.81-.18,11.23,11.23,0,0,1-5.51-1.47,6.78,6.78,0,0,0-8.83,1.6c-1.26,1.49-4.66,1-5.45-1-.91-2.26-2.47-2.81-4.7-2.74a13,13,0,0,0-12,8.77c-.52,1.49,0,2.64.92,3.83a4.58,4.58,0,0,1,1.16,2.59c-.55,7.41,3.69,12.08,9,16.15,1,.79,2.27,1.27.59,2.64-.25.2-.18,1.07,0,1.49a5.88,5.88,0,0,0,7.93,3c3.6-1.38,5.23-.94,7.6,2.09a3.58,3.58,0,0,0,6.2-.68,4.85,4.85,0,0,1,4.27-3.15c4.15-.61,4.18-.65,3.18-4.79-.33-1.37,0-2.4,1.3-2.82a11.76,11.76,0,0,0,5.83-4.4c1.43-1.88,2.88-1.63,4.21.3,1.53,2.22,3.16,4.36,4.73,6.54a6.69,6.69,0,0,1,1,1.68c.63,1.91,2,2.47,3.85,2.42,1.48,0,3,0,4.43,0,0,.15,0,.3,0,.45h-6.14c-5.88,0-6.1-.23-8-5.75a3.76,3.76,0,0,0-2.2-2.3c-.86-.14-2.1.71-2.85,1.45-2.15,2.14-2.52,4.89-2.46,7.82.05,2.73-.06,2.73-2.76,3-.61.06-1.22.08-1.82.18-3,.53-4,2.48-1.94,4.84,1.68,2,1.76,3.54.3,5.56a19.29,19.29,0,0,0-2.26,4.23,9.51,9.51,0,0,0-.22,2.81,8.54,8.54,0,0,0,2.6-.24c3.6-1.54,7.06-3.42,10.74-4.73,1.57-.56,3.55-.12,5.31.12a2.05,2.05,0,0,1,1.17,1.6c0,1.81,1.11,2.66,2.38,3.5.72.47,1.39,1,2.46,1.77-2.56.76-4.44,2.39-6.92,1.54-4-1.38-8-.8-11.91.27-2.12.58-2.58,1.5-1.11,3.12a37.13,37.13,0,0,1,5.45,8.07c1.16,2.23,1.4,4.29,0,6.55-1.54,2.45-1.12,3.43,1.56,4.51a7.44,7.44,0,0,1,4.3,3.66,6.34,6.34,0,0,0,2.17,2.21,5.21,5.21,0,0,1,2.46,4.77c0,.55,0,1.11,0,1.66.08,2.27.58,2.83,2.89,2.83a5.71,5.71,0,0,1,4.3,1.74c1.71,1.71,3.29,1.4,4.24-.87a25.82,25.82,0,0,0,1.44-4.9,3,3,0,0,1,1.95-2.42,11.57,11.57,0,0,1,8-.29c1.37.43,2.37,2,3.56,3a11.2,11.2,0,0,0,2.76,2.16c2.6,1,4,2.69,4.05,5.59.08,3.36,3.35,6.43,6.75,6.6.55,0,1.11,0,1.66,0,2.55,0,3.32.73,3.55,3.33.16,1.82.24,3.64.27,5.47a3.1,3.1,0,0,0,1.84,2.89c1.61.88,3.15,1.87,4.72,2.82l-.22.37c-1.4,0-2.8-.1-4.19,0s-2.69.5-4,.76l.06.4c-.1-.05-.27-.09-.28-.16-.46-2.75-2.29-4.32-4.54-5.69-1.59-1-1.75-2.7-1.45-4.45.45-2.6-.12-3.56-2.79-3.64a37.27,37.27,0,0,0-7.38.61c-2.76.48-4.15-.8-3.59-3.52a28.22,28.22,0,0,0,.57-4.88,1.84,1.84,0,0,0-2.15-2,17.68,17.68,0,0,0-2,.1c-2.17.31-2.72.93-2.71,3.17,0,2,.14,4.08.19,6.13,0,.41-.07.83-.15,1.69a18.81,18.81,0,0,1-1.62-1.52,23.66,23.66,0,0,0-14.53-8.81c-2.27-.4-3-1-3.45-3.38a2.24,2.24,0,0,0-2.39-2c-2.21-.09-4.41-.28-6.61-.35-1.34,0-1.82-.6-1.45-1.89s.81-2.64,1.11-4c.39-1.8-.06-2.32-1.9-2.39-1.44-.06-2.89,0-4.3-.19s-1.6-.93-.8-2.09c.51-.73,1.76-1.42.44-2.42-1.72-1.31-4-1.36-4.56,0-1.09,2.5-3,4.91-1.35,7.95.17.3-.28,1.27-.69,1.49a5.07,5.07,0,0,1-2.24.48c-1.39,0-2.44.38-2.9,1.91a1.85,1.85,0,0,1-1.32,1,8.43,8.43,0,0,0-6.52,3.75c-.11.16-.35.22-.73.45a11.91,11.91,0,0,1-.3-1.3c-.2-1.81-.34-3.62-.57-5.43-.35-2.73,1.16-4.22,3.91-3.78q2,.33,4.08.69c1.11.19,1.66-.11,2-1.34a9.06,9.06,0,0,1,1.81-3.57c1.94-2.21,4-4.26,5-7.15.42-1.27,1.29-1.51,2.49-1,1,.43,2.07.77,3.13,1.11s1.85-.06,1.67-1.24c-.34-2.22-.8-4.42-1.34-6.6-.34-1.38-1-2.67-1.36-4-.71-2.9-1.87-3.88-4.83-4a59.76,59.76,0,0,1-6.44-.36c-2.12-.29-2.55-1.57-1.28-3.28,1.15-1.55,2.34-3.08,3.48-4.64a8.63,8.63,0,0,0,1.87-5.87c-.17-2.35-1.32-3.72-3.64-3.64a62.15,62.15,0,0,0-7.17,1c-.59.09-1.15.41-1.74.52-2.17.41-3-.26-3.05-2.43-.1-3.32-1-4.44-4.14-5.56a37.53,37.53,0,0,1-3.37-1.65,3.48,3.48,0,0,0-1.37-.49c-2.26,0-4.53.06-6.79.15-1.48.06-2,1-2.25,2.37-.45,2.38-1.08,4.72-1.74,7.05a2.66,2.66,0,0,1-2.54,2c-2.89.29-5.77.72-8.66,1-.3,0-.94-.49-.92-.53a6.15,6.15,0,0,1,1.14-2c.27-.26,1,0,1.59,0a31.83,31.83,0,0,0,4.44.24,3,3,0,0,0,2.22-1.16c1.35-3,2.75-6.09,1.09-9.5a2.76,2.76,0,0,0-2.7-1.79,33.64,33.64,0,0,1-4.46-.27,3,3,0,0,1-3-3.17c-.15-2.54-.78-4.73-3-6.35-.62-.46-.84-1.51-1.17-2.33A3.19,3.19,0,0,0,93.44,82c-3.26-.15-6.08.55-8.46,3a11.54,11.54,0,0,1-3.59,2.3c-1.72.74-2.82,0-3.37-1.72A12.3,12.3,0,0,0,76.93,83c-1.6-2.68-3.27-3.52-6.26-2.6a33.38,33.38,0,0,0-7.22,3.2c-2.68,1.6-2.13,5.7.82,7a8.46,8.46,0,0,0,2.88.71,5.23,5.23,0,0,1,4.59,3c1,1.87,1.87,2.05,3.49.7,1-.85,1.86-1.89,2.89-2.72a11.78,11.78,0,0,1,2.19-1.13l.37.59c-1,.79-1.94,1.64-3,2.36A5.42,5.42,0,0,0,75,98.57c-.07,1.32-.86,2.6-1.37,3.89-1.13,2.88-1.27,5.69.48,8.41a5.83,5.83,0,0,1,.41,1.21,2.42,2.42,0,0,1-2.2-2.26c-.35-1.84-.43-3.74-.82-5.57a24.89,24.89,0,0,0-1.3-3.25,12.73,12.73,0,0,1-.95-3c-.18-1.78-.43-2.18-2.19-2.08-3.89.22-7.78.51-10.59,3.78-.09.1-.3.11-.66.23a4,4,0,0,1,.85-4.08A8.93,8.93,0,0,1,58,94.58c.91-.74.73-1.59-.12-2a7.13,7.13,0,0,0-3.14-.72c-1.93,0-3.85.34-5.77.56-2.66.31-3.73,1.34-4.57,3.66s-2,4.74-3.07,7.11a10.43,10.43,0,0,0-1,2.44c-.46,3.11.86,4.73,3.91,4.23,3.82-.63,7.19.93,10.7,1.69.92.2,1.58,1.78,2.25,2.79.12.18-.19.91-.47,1.06-1.38.76-2.81,1.45-4.25,2.09-1.06.47-2.23.69-3.24,1.23a2.22,2.22,0,0,0-.74,3.63c1.48,1.62,1.21,3.24.3,4.88-.67,1.21-1.55,2.29-2.32,3.43-1.75,2.62-.93,6.38,3,6.45a33.06,33.06,0,0,0,7.83-.77c1-.22,2-1.57,2.45-2.64A8.06,8.06,0,0,1,66,128.42a29.27,29.27,0,0,0,6.93-3.07c3.31-1.76,6.34-1,8.2,2.13a29.47,29.47,0,0,0,2,3.08c1.81,2.34,4.6,2.17,6.11-.31.94-1.54,1.45-3.65,3.48-4a32.83,32.83,0,0,1,8.18-.44c1.22.12,2.61,1.48,3.38,2.63a4,4,0,0,0,3.61,2.09,15.67,15.67,0,0,1,3.36.8c-.56,1-1.11,2-1.69,3-.11.19-.37.3-.44.49-1.22,3.27-4.23,4-7.06,4.76a6.67,6.67,0,0,0-5.36,6,1.37,1.37,0,0,1-.82,1,5.43,5.43,0,0,1,0-2c1-2.26,2.11-4.48,3.28-6.66a5.2,5.2,0,0,0-.11-5.5c-1.38-2.32-2.91-2.68-5-1.06-2.32,1.76-4.32,3.78-5,6.8a3.55,3.55,0,0,1-.8,1.78,1.68,1.68,0,0,1-1.59.22,9.36,9.36,0,0,0-10.68-.4,9.12,9.12,0,0,0-4.13,5.79,2.29,2.29,0,0,1-.23.61c0,.08-.16.12-.25.18-1.61-5-.2-9.21,3.57-11.47a10.64,10.64,0,0,0,3-3.43c.67-1,0-2.21-1.45-2.62-2.17-.62-4.4-.57-6.06,1.13a18.53,18.53,0,0,1-8.59,4.78,3.11,3.11,0,0,0-2.5,3.08c-.12,2.46-1.24,3.76-3.64,4.65a16.75,16.75,0,0,0-5.32,3.77c-.6.57-.59,2-.53,3a13.3,13.3,0,0,0,.85,2.49A3,3,0,0,1,49.62,155c-1.37,1.19-2.52,2.62-3.91,3.78a11.15,11.15,0,0,1-3.47,2.12c-2.67.87-4.33,2.46-4.45,5.31-.22,5.42-.4,10.85-.47,16.28a11.16,11.16,0,0,0,.86,3.06l.56-.05a12.26,12.26,0,0,0,.31-1.65,12.64,12.64,0,0,1,1.7-5.27,73.86,73.86,0,0,0,4-9.24c1.14-3.13,1.7-3.78,5-4,2.21-.15,3.78-.87,4.64-3.23,1.28-3.49,3.72-4.16,7.13-2.7a18.23,18.23,0,0,0,4.83,1c2.56.33,3.09.79,3.44,3.34.24,1.75.59,3.49.74,5.25a15.13,15.13,0,0,1-.33,2.41A26,26,0,0,0,70,176.1c.14,1.33,1.38,1.69,2.12.67,2.42-3.32,6.5-4.33,9.42-6.92a37.56,37.56,0,0,0,4.14-3.74,7,7,0,0,1,6.52-2.75,22.13,22.13,0,0,1,15,7.36,13.81,13.81,0,0,1,3.8,12.49,11.7,11.7,0,0,0,1.56,8.56c1.54,2.36,1,5.46.12,8.19-.49,1.58-1.25,3.09-2.06,5.05a19.55,19.55,0,0,1-.67-2.6c-.34-3.05-2.13-5.19-4.47-6.86a6.28,6.28,0,0,1,.08-10.23c3.91-2.56,3.77-3.75-.11-6.46-3.2-2.23-6.06-5-9.14-7.37a15.53,15.53,0,0,0-3.75-2.33c-3.55-1.41-5.67-.14-6.27,3.6A3.67,3.67,0,0,1,84,175.9a33.75,33.75,0,0,1-4.42,1.36c-2.78.63-5.12,1.74-6.23,4.62-.17.45-.66.77-.85,1.21a6.74,6.74,0,0,0-.8,2.47c0,1.13-.32,1.39-1.35,1.12A4.42,4.42,0,0,1,66.77,182a30.49,30.49,0,0,0,0-3.81,5.72,5.72,0,0,0-.93-2.76,6.85,6.85,0,0,1-1.38-4.63,46.41,46.41,0,0,0-.2-5.46,2.45,2.45,0,0,0-2-2.5c-1.46-.22-3-.28-3.88,1.18-2.47,4.14-6.86,6.35-9.88,10-.84,1-2.44,1.43-3.76,2a2.86,2.86,0,0,0-2.13,3c0,2.16,0,4.31,0,6.47a3.58,3.58,0,0,0,2.53,3.8c3,1.31,5.91,2.71,8.87,4,1.48.66,2.17,1.72,1.66,3.31-.95,3,0,5.4,2.05,7.57,1.54,1.66,2.94,3.46,4.57,5a5.11,5.11,0,0,1,1.36,5.46c-.29,1.12-.72,2.21-1.06,3.32-.56,1.83-.73,3.58,1,5a2.22,2.22,0,0,1,.63,1.31,4.49,4.49,0,0,0,4.19,4.21,2.92,2.92,0,0,1,.6.24,2.93,2.93,0,0,1-3.5.79,3.62,3.62,0,0,1-1-.63c-3.33-3.19-7.18-2.65-11-1.4-2.57.83-5,2-7.55,3a8.69,8.69,0,0,1-1.45.21l1.56-2.8a8.44,8.44,0,0,1,6.44-4.65A8.85,8.85,0,0,0,60,217.26c1-2.49.25-4.64-2.16-5.79-.89-.43-1.91-.57-2.81-1a23.57,23.57,0,0,1-3.86-2.12c-1.73-1.26-3.29-2.77-5-4.09-1.36-1.05-1.61-1.94-.65-3.37.52-.78,1.21-1.45,1.71-2.24a2.58,2.58,0,0,0,.46-1.64c0-.25-.93-.45-1.45-.48A8,8,0,0,0,38.32,202a3.78,3.78,0,0,1-1,1.49,6.51,6.51,0,0,1,.6-5.14c.44-.77,1-1.47,1.38-2.26.58-1.12.29-2.1-1-2.21a7.51,7.51,0,0,0-3.8.42,7.44,7.44,0,0,1-4.1.73,37.71,37.71,0,0,0-6.6.28c-1.53.17-2.24,1.54-2.07,3.45.1,1.09.23,2.18.37,3.38-2.62-1.63-4-5.15-2.95-7.75a3.26,3.26,0,0,1,2.14-1.69,16.52,16.52,0,0,1,3.73.32c.74.06,1.76.3,2.18-.07,2.07-1.84,4.53-3.4,5-6.57a4.74,4.74,0,0,1,1.36-2.54,3.89,3.89,0,0,0,1.38-3.53c-.28-1.9-.63-3.78-1-5.67a4.52,4.52,0,0,1-.25-1.12c.19-1.68-.35-2.72-2.15-3.1a2,2,0,0,1-.93-1.67c.51-3.15,1.09-6.29,1.91-9.37.21-.76,1.34-1.38,2.17-1.83a8.86,8.86,0,0,1,2.4-.59,1.9,1.9,0,0,0,1.77-2.19,36.74,36.74,0,0,0-.82-5.23c-.15-.56-1-1-1.65-1.34a4.54,4.54,0,0,0-1.64-.09c-2.26-.09-2.3-.23-1.74-2.34a5.91,5.91,0,0,0-1-5.65c-1.53-1.79-3.34-1.56-4.56.43a7.19,7.19,0,0,1-1.48,1.35,11,11,0,0,1-1.23-1.57c-.39-.72-.57-1.56-.93-2.3-.68-1.4-1.33-1.56-2.59-.57-.91.71-1.71,1.57-2.62,2.29a1.76,1.76,0,0,1-2.86-.35A21.46,21.46,0,0,1,13.78,136a1.7,1.7,0,0,0-2.52-1.07c-2.8,1.3-5.31,2.91-6,6.31-.52,2.54-1.77,3.5-4.44,3.82-2.6-7.05,1.17-13.65,9-15.78a7.76,7.76,0,0,1,7.61,1.53,2.49,2.49,0,0,0,2.18.28,6.77,6.77,0,0,1,7.6.9,3.37,3.37,0,0,0,1.95.64,9.27,9.27,0,0,1,9.12,6.81c.5,1.9,1.1,3.57,3,4.49a1.79,1.79,0,0,1,.38.32c2,1.87,2,1.84,3.23-.65.55-1.11,0-1.63-.79-2.15A8.61,8.61,0,0,1,40,135.51a10.63,10.63,0,0,1,1.77-8.17,4,4,0,0,0,.73-4,8.06,8.06,0,0,1,.15-5.84c.32-.88.22-1.39-.84-1.69-6.5-1.84-9.16-7.86-6.32-14.13,1.38-3.06,2.68-6.16,4.1-9.2A8.83,8.83,0,0,1,46,87.2a78.29,78.29,0,0,1,8-1.12c1.3-.12,2.06-.55,2.33-1.85.59-2.86,2.43-4.71,4.86-6.18a27.81,27.81,0,0,1,8.73-3.46c4.37-.92,8,.13,10.76,3.68.92,1.18,1.69,1.15,2.92.37a16.21,16.21,0,0,1,13.67-1.77c2.26.66,3.52,2.53,4.54,4.58.43.87,1.14,1.6,1.63,2.44a26.55,26.55,0,0,1,2.28,4.31,2.78,2.78,0,0,0,2.59,2.24,30.72,30.72,0,0,1,5.3,1.65c.41.14.81.51,1.2.5,1.06,0,2.12-.2,3.19-.31a15,15,0,0,0-1.25-2.39,21,21,0,0,1-4.16-11.36,7.13,7.13,0,0,0-.81-2.47c-1.2-2.4-1.91-4.87-.95-7.5,2.37-6.43,6.44-11.26,13.38-12.79a25.35,25.35,0,0,1,7.59-.09c1.23.11,2.36,1.09,3.58,1.55a3.68,3.68,0,0,0,2.27.35,15.51,15.51,0,0,1,13,.72c1.91.94,2.56.5,2.41-1.59-.49-6.76,2.23-9.89,9.07-10.47,2.36-.2,4.72-.51,7.07-.82a9.55,9.55,0,0,1,5.85,1.33,14,14,0,0,0,3.49,1.1,12,12,0,0,0,2.15,0c3.88.12,6.28,1.9,7.15,5.65.73,3.17,1.13,6.41,1.79,9.59a4.63,4.63,0,0,0,1.16,2A47.41,47.41,0,0,1,194.52,69a3,3,0,0,0,3.32,1.47,22.16,22.16,0,0,1,5.08-.08A7.32,7.32,0,0,1,208.24,74c.93,1.36,2,2.67,3,3.95.79,1,1.68.92,2.78.3a18.46,18.46,0,0,1,14.26-1.41A5.14,5.14,0,0,1,232,81a11.71,11.71,0,0,0,2.7,5,19,19,0,0,1,2.95,5.45c.89,2.54,1.33,5.24,2,7.85.13.49.76,1.29,1,1.23a2.86,2.86,0,0,0,1.61-1.09,63.24,63.24,0,0,0,3.54-6.11,5.5,5.5,0,0,0,.64-3.38c-1.27-5.14.72-9.24,4-12.88a8.9,8.9,0,0,1,3.77-2.25,27.7,27.7,0,0,1,6.61-1.47c3.06-.22,6,.53,8,3a13.85,13.85,0,0,0,4.66,3.85A24.09,24.09,0,0,1,276,81.85a4.06,4.06,0,0,0,6.35-2.07.9.9,0,0,1,0-.16,47,47,0,0,0,4.79-10.82c.56-1.91,2.45-2.86,4.36-3.55a2.89,2.89,0,0,0,1.69-1.53c1.41-5.14,6.78-6.88,11-6A11.85,11.85,0,0,1,309,60.11c2.05,1.66,3.06,1.92,5.41.46a8.64,8.64,0,0,1,6.35-1.21c5.48,1,7.25,3.9,8.1,10,.28,2,1.07,2.93,2.92,3.38a6.91,6.91,0,0,1,5.29,5.17c.41,1.46.87,3.33,2.47,3.35,1,0,2.35-1.42,2.88-2.52,2.59-5.46,7.83-5.8,12.7-6.82.88-.18,1.9.51,2.88.61a3.6,3.6,0,0,0,2.3-.25c3.72-2.85,7.84-3,12.15-2,2.46.55,3.15.27,4.33-2,.41-.78.23-1.25-.57-1.55a8.14,8.14,0,0,1-5.32-6.28c-.14-.62-1-1.2-1.68-1.52-1-.5-2.27-.59-3.26-1.15a6.87,6.87,0,0,1-2.44-9.88,10.1,10.1,0,0,0,1.35-8.22c-1.08-4.76,1.54-11.3,7.4-13.31A12.2,12.2,0,0,0,376,24.33a12.91,12.91,0,0,1,10-3.11c1.32.15,1.39-.65,1.45-1.63.17-2.69-.07-5.54.76-8a26.77,26.77,0,0,1,4.35-7.3A6.46,6.46,0,0,1,396,2.32c3-.71,6.07-1.72,9.29-.82a12.21,12.21,0,0,1,6.26,4.12,4.16,4.16,0,0,0,6.65-.15,7.94,7.94,0,0,1,5.29-3.39c4.52-.75,9-1.69,13.61-.34a6.74,6.74,0,0,1,4.37,3.54c1.14,2.27,2.15,2.58,4.59,1.63a21.2,21.2,0,0,1,5.2-1.57,12.73,12.73,0,0,1,5,.55,89.78,89.78,0,0,1,8.49,3.21c2,.83,3.84,1.88,5.73,2.89.32.17.5.62.88,1.1a5.9,5.9,0,0,1-4.8-.59c-3.35-1.82-3.41-1.84-6.08.87-1.34,1.36-2.49,2.89-3.73,4.35-.18.21-.29.51-.52.64-3.74,2.19-7,5.58-12,4.37a8.67,8.67,0,0,0-2.31-.08,9.13,9.13,0,0,1-8.31-3.9c-1.1-1.54-1.43-1.47-2.45.11a7.34,7.34,0,0,1-4.34,3.1,15.8,15.8,0,0,0-3.53,1.67,14.27,14.27,0,0,1-9.4,1.83c-1.91-.25-2-.14-1.8,1.73.38,3.71-1.18,6.65-3.88,9.06a11.5,11.5,0,0,1-2.08,1.35,2.29,2.29,0,0,0-1.28,2.89c.28,1,.49,2,.74,3,.92-.27,1.85-.52,2.76-.8,5.94-1.79,11.41.15,15.27,5A21.84,21.84,0,0,1,428,58.09a13.56,13.56,0,0,1-.12,3.61c-.13,1.19,0,1.75,1.49,1.85,4,.27,7.07,2,8.57,6a5.36,5.36,0,0,0,1.29,1.68c2.94,3,4.45,6.29,2.6,10.48a7,7,0,0,0-.29,2.43c-.1,2.08,0,4.19-.26,6.25a8.49,8.49,0,0,1-5.44,7,13,13,0,0,0-3.18,2.34,11.42,11.42,0,0,1-7.05,2.94c-1.43.09-1.75.71-1.53,2.05a26.61,26.61,0,0,1,.5,5.41,9.67,9.67,0,0,1-3.39,7c-1.05.93-1,1.64-.27,2.94a31.69,31.69,0,0,1,2.58,6.37c.67,2.08.88,2.4,2.86,1.54a12.43,12.43,0,0,0,3.77-2.48c2.91-2.87,6.5-3.86,10.38-4.19a10.94,10.94,0,0,1,7.56,1.8,7.87,7.87,0,0,1,3.62,6.54c0,2.19.83,3.57,3.07,4.29,3.25,1.05,5.55,5.18,5.15,9a2,2,0,0,0,1.4,2.37c5.5,2.37,7.29,7.55,4.51,12.86-1.23,2.34-2.5,4.67-3.87,6.94a9.28,9.28,0,0,0-.87,6.12c.41,3.44,1.07,6.85,1.56,10.27a2.31,2.31,0,0,0,2.45,2.28c3.46.33,6.23,1.76,7.4,5.41a2.16,2.16,0,0,0,1.52,1.16,8,8,0,0,1,6,3.6,3.53,3.53,0,0,0,2.5,1.27c4.17.12,6.93,1.8,7.91,6.08a7.07,7.07,0,0,0,1.83,2.71,27.52,27.52,0,0,1,6,9.86,4.09,4.09,0,0,0,.77,1.45,9.67,9.67,0,0,1,2.11,6.64c.06,4.48,0,9,0,13.43a10.3,10.3,0,0,1-1.83,6.41,1.77,1.77,0,0,0-.17,1.63c2,2.5,2.06,5.4,2,8.36-.08,4.29.64,3.86-4.07,3.92-1.46,0-2-.63-1.92-2a30.33,30.33,0,0,0,0-4.64,3.63,3.63,0,0,0-1.15-2.2c-2.51-2.05-5.28-3.17-8.59-1.83-1.12.45-2.37.54-3.53.91-2.56.79-3.39,2.83-2.1,5.19.47.87,1.11,1.66,1.61,2.51A9.45,9.45,0,0,1,482,255Z"/>
                <path class="cls-2"
                      d="M175.79,201.39a18,18,0,0,0-3-2.07,2.68,2.68,0,0,1-1.85-2.45c-.15-1.54-.35-3.07-.64-4.58s-1.25-2-2.79-1.87c-2.87.3-5.76.48-8.64.71l-.11-.54a5.24,5.24,0,0,1,1.34-.33,8.93,8.93,0,0,0,5.44-1.7,20.83,20.83,0,0,1,2.29-1.33c2.49-1.29,4.52-.79,5.63,1.77a36.13,36.13,0,0,1,2.2,7.24c.46,2.33,1.31,3.83,3.61,4.43a129.57,129.57,0,0,0,13.35,3.19,68,68,0,0,0,11.07.27c2,0,3.35.55,4.13,2.52s1.77,3.56,2.6,5.36a2.81,2.81,0,0,0,2.76,1.73c1.11,0,2.22.11,3.32,0a2.73,2.73,0,0,1,3.16,2.46,13.81,13.81,0,0,1,.21,2.14,5.85,5.85,0,0,0,2.57,4.7,58.48,58.48,0,0,1,5.71,5.73l-.33.43a8.87,8.87,0,0,1-1.57-.87,10.8,10.8,0,0,0-6.81-2.65c-1.71-.06-2.75-1.23-3.2-3.27-.57-2.59-.57-2.59-3.05-2.12a1.19,1.19,0,0,1-.33,0c-5.26-.48-8.13,2.94-10.84,6.62-.28.38-.58.74-.9,1.14-1.09-1.67-1.14-3.1.13-4.09,3.56-2.76,3.2-6.82,3.67-10.59.06-.52-.79-1.19-1.27-1.74-.64-.73-1.57-1.3-1.93-2.13-.54-1.24-1.28-2-2.58-1.89a48.2,48.2,0,0,0-7.48.72,6,6,0,0,0-2.94,2.38c-.68.9-1,1.6-2,.48a1.72,1.72,0,0,0-1-.46c-5.61-.51-11.22-1.16-16.85-.37a5.64,5.64,0,0,0-4.89,6.24c.1,1.31.21,2.63.25,3.94,0,1-.38,1.25-1.35.85-2.61-1.08-5.07-.43-6.41,2-1.52,2.79-3.81,3.48-6.73,3.58a34.93,34.93,0,0,0-7.15,1,5.8,5.8,0,0,0-2.66,2.05c-2.28,2.76-4.39,5.65-6.65,8.43a7.66,7.66,0,0,0-1.76,6.79c.57,2.64,1.05,5.29,1.54,7.95.12.64.11,1.29.17,1.94l-.44.1a5.81,5.81,0,0,1-.69-.84c-1.39-2.51-2.71-5.06-4.16-7.53a5.27,5.27,0,0,1-.11-5.47,44.44,44.44,0,0,0,2.62-6.89,6.23,6.23,0,0,1,2.76-4,3.28,3.28,0,0,0,1.73-3c.19-3.61,1.83-5.38,5.45-6,1.36-.22,2.75-.19,4.11-.38,2.83-.4,5.67-.78,8.46-1.38.82-.17,1.52-1,2.21-1.62.93-.84,1.57-1,2.31.31.35.63,1.29.94,2,1.39a8.87,8.87,0,0,0,.75-2c.19-1.59.22-3.19.33-4.79a3.44,3.44,0,0,1,2.06-3.16,3.92,3.92,0,0,0,2.28-3c.73-3.26,1.1-3.54,4.34-4,2.16-.31,4.32-.66,6.48-1Z"/>
                <path class="cls-2"
                      d="M338.7,209.61c-1.12-1.4-2.31-2.76-3.34-4.22a6.36,6.36,0,0,0-4.14-2.69,20,20,0,0,1-5.52-2.41c-1.35-.79-2.58-1.21-4-.59a36.2,36.2,0,0,1-5.5,2.25,19.17,19.17,0,0,1-5.87.35c-2.27-.19-3.08-1.44-3.12-3.77a1.91,1.91,0,0,0-.71-1.34,4.23,4.23,0,0,0-6.74,3,23.61,23.61,0,0,1-1.56,5.51c-.35.79-1.5,1.29-2.38,1.74a14.71,14.71,0,0,1-2.24.57,2.07,2.07,0,0,0-1.66,2.5c.86,4.54-1.15,7.41-5.17,9.2-1.47.66-2.85,1.54-5,1.59,1.31-2.38,2.25-4.53,4.51-5.48,1.41-.59,2.11-1.45,1.85-2.89a41.56,41.56,0,0,0-1.41-6c-.73-2.11-.52-2.69,1.71-2.95,3.18-.37,4.16-1.38,5.16-4.43a63.2,63.2,0,0,1,3.14-7.61,2.8,2.8,0,0,1,2-1.14,3.49,3.49,0,0,0,3.45-3c.52-2.12,1.73-2.79,3.84-2.34,2.8.6,5.09,1.8,5.89,4.87A9.35,9.35,0,0,0,313,192.7c1.11,1.82,2.18,2.16,4.15,1.25a2,2,0,0,1,2.65.52,4.42,4.42,0,0,0,3.53,1.46c2.47.13,4.93.46,7.39.76a4.17,4.17,0,0,1,3.43,2.74c1.51,3.35,3.17,6.63,4.76,9.94Z"/>
                <path class="cls-2"
                      d="M.57,205.43a3.06,3.06,0,0,1,2.12,3.51,16.54,16.54,0,0,0,.08,4.1c.35,2,1.81,2.64,3.72,1.91a6.06,6.06,0,0,1,1.9-.46,2.06,2.06,0,0,1,2.36,2c.38,2.6.67,2.86,3.27,3.39,3.22.66,4.24,3.41,1.91,5.8s-2.21,5.33-1.82,8.18c.25,1.86,1.26,3.61,1.94,5.44,2.18-.85,4-1.67,5.2-3.71,1.5-2.46,7.22-3.46,9.53-1.75,1,.76,1.57,2.28,2.14,3.54a8.3,8.3,0,0,1,.31,2.28,3.27,3.27,0,0,0,3.07,3c1.09.17,2.2.25,3.29.42s1.52.85,1,1.77a13.43,13.43,0,0,1-1.94,2.65,1.15,1.15,0,0,1-1.1-.07c-1.11-1.71-2.88-1.9-4.64-2.15-2.44-.35-2.77-.92-2-3.32a2.65,2.65,0,0,0-1.69-3.7,4.74,4.74,0,0,0-6.36,2.48,8.57,8.57,0,0,1-3.61,4.17c-1.88,1.14-2,1.86-1.59,4a24.2,24.2,0,0,1,.23,5.09c0,.53-.64,1.46-1,1.48a66,66,0,0,1-8.68-.19c2.48-1,3.08-3.14,3.67-5.3.11-.39.67-.73,1.1-1,1.9-1,2.38-2.81,2.72-4.68a1.66,1.66,0,0,0-.31-1.22,39.61,39.61,0,0,0-3.87-4.28c-2.29-2-3.71-4.31-3.59-7.46a29.07,29.07,0,0,0-.23-4.14c-.26-2.46-1.59-3-3.65-1.67a4.46,4.46,0,0,1-2.92.39c-.35-.06-.67-1.35-.68-2.08-.06-5.47,0-10.95,0-16.42C.46,206.88.52,206.3.57,205.43Z"/>
                <path class="cls-2"
                      d="M113.91,242.2a11.08,11.08,0,0,0,.8-2.26,22.21,22.21,0,0,0,.39-5.37c-.26-2.26-2.32-3.07-4.58-2.54a8.92,8.92,0,0,1-4.19-.13c-2.78-.75-3.77-.36-4.78,2.38-.52,1.4-1,2.81-1.61,4.17a18.59,18.59,0,0,1-1.47,2.27,7.12,7.12,0,0,1-.47-1.33c-.08-1.26-.82-1.71-2-1.71-1.33,0-2.65,0-4,0-5.18-.05-6.54-1.22-7.84-6.22a7.47,7.47,0,0,0-2-3.43c-1.76-1.63-3.5-1.45-4.72.6a64.24,64.24,0,0,0-3,6.59c-.46,1-1,2-1.53,3s-1.32,1.9-1.81,2.93a2.48,2.48,0,0,0,.48,3.05c1,1,.77,1.7-.47,2.27-3.52,1.6-3.5,1.61-2.08,5.13a24.14,24.14,0,0,1,.7,2.41l-.62.37c-1.45-1.79-3-3.51-4.27-5.41-.29-.43.19-1.59.61-2.22,1.5-2.27,1.55-2.47,0-4.62-1-1.33-.59-2.21,1.1-2.46,3.44-.5,4.08-1.32,5.2-4.39s2.71-5.88,4.11-8.8a31.31,31.31,0,0,0,1.62-3.23A2.83,2.83,0,0,1,80.67,221,5.89,5.89,0,0,1,86,224.1c1.71,3.06,3.55,6,5.39,9a1.4,1.4,0,0,0,1.14.58,11.37,11.37,0,0,0,3.27-1.1,2.24,2.24,0,0,0,.74-1.85c-.38-3-.11-3.39,2.94-3.35a6.79,6.79,0,0,1,1.82.1c2.08.61,4,.94,5.62-1.11.26-.33,1-.35,1.56-.36,1.77,0,3.53,0,5.3,0a2.87,2.87,0,0,1,3.1,3,54.76,54.76,0,0,1-.41,6.08,24.35,24.35,0,0,1-.57,3.59c-.32,1.27-.81,2.51-1.22,3.76Z"/>
                <path class="cls-2"
                      d="M392.49,202.26c.2-3.24-1.67-4.3-4.27-4.75-.44-.08-.94-.95-1.06-1.52a34,34,0,0,1-.47-3.94c-.21-2.26-1.14-3-3.15-2a15.51,15.51,0,0,0-2.94,2.42l-.92.76c-.24-.34-.62-.65-.69-1-.29-1.54,1.74-4.84,3.23-5.39a7.18,7.18,0,0,1,.8-.22c5.06-1.25,5.3-1.14,7.69,3.41.49.93.95,1.87,1.42,2.81s1.22,1.25,1.94.39c1.56-1.86,3.47-2.22,5.8-2s4.49-.41,5.72-2.82c.22-.42,1.07-.67,1.65-.71a5.15,5.15,0,0,1,2.11.35,12.64,12.64,0,0,0,7.92.68c1.35-.36,2.1.57,2.29,2,.37,2.83.41,2.87,3.28,3.46,1,.2,1.64.57,1.8,1.63a5.23,5.23,0,0,0,2.91,3.8c1.69,1,1.78,2.67.14,3.82-1.13.79-2.43,1.33-3.58,2.07-2.17,1.4-4.29,2.88-6.43,4.32-.3.2-.61.38-.92.57l-.45-.36a13.2,13.2,0,0,1,1.62-2.15c1.32-1.17,2.83-2.14,4.13-3.33.55-.5,1.22-1.57,1-2a2.91,2.91,0,0,0-2.05-1.28,44.24,44.24,0,0,0-5.28-.17c-2.35,0-2.92-.42-3-2.89a9.09,9.09,0,0,0-2.21-5.76c-1-1.14-2.13-1.4-3.34-.4a11.69,11.69,0,0,1-7.7,2.57,17.26,17.26,0,0,0-2.32.12c-2.06.29-2.06.77-2.22,2.81-.13,1.6-1.15,3.14-1.77,4.7Z"/>
                <path class="cls-2"
                      d="M238.11,255.34c-1.66-.23-3.2-.54-3.83-1.9-.72-1.54-1.06-3.36.08-4.91,1.34-1.83,2.36-4,5.17-4.22.69-.05,1.49-1.24,1.88-2.08.8-1.7,1.32-3.51,2-5.26.86-2.17,1.28-2.49,3.62-2.22a25.21,25.21,0,0,1,3.49.95,6.81,6.81,0,0,0,2.54.55c5-.81,10.08-1.68,15.09-2.7,2.55-.52,3.75,0,4.55,2.44a17.4,17.4,0,0,1,.36,7.27l-.45.11c-.3-.72-.63-1.43-.89-2.17a3.68,3.68,0,0,0-3.59-2.58c-4.49-.44-8.47,1.17-12.51,2.62a3.42,3.42,0,0,1-3.43-.56c-1.47-.94-3.47-1.11-5.28-1.42-.32-.06-1,.7-1.17,1.19a16.12,16.12,0,0,0-1,4,4.94,4.94,0,0,1-3,4.39,18.07,18.07,0,0,0-1.75.94,3.71,3.71,0,0,0-1.87,3.62C238.15,254,238.11,254.59,238.11,255.34Z"/>
                <path class="cls-2"
                      d="M213.36,142.54a8.68,8.68,0,0,1-.55-2.05c-.05-2.7-.09-5.41,0-8.11.13-2.9,1.73-4.24,4.64-4.15.72,0,1.44,0,2.15.08a8.25,8.25,0,0,0,6.94-2.84c2-2.06,3.16-1.64,4.15,1.13a5.76,5.76,0,0,0,2,2.86c2.53,1.57,3.6,4,4.33,6.61a4,4,0,0,0,2.16,2.94,6.38,6.38,0,0,1,1.34,1.19c1.42,1.29,2.76,2.68,4.28,3.83a4.36,4.36,0,0,1,1.89,4c-1.1-2.63-3.47-3.6-5.71-4.73-.3-.15-.62-.46-.88-.42-2.24.37-2.67-1-3.11-2.76a5,5,0,0,0-2.13-2.42,8.62,8.62,0,0,1-3.14-4.33c-.78-2-1.27-2.24-3.38-2a33.4,33.4,0,0,1-3.47.19,7.17,7.17,0,0,0-4.63,1.49,6.33,6.33,0,0,1-2.26,1c-2.76.78-3.22,1.31-3.53,4.22-.15,1.44-.35,2.88-.52,4.31Z"/>
                <path class="cls-2"
                      d="M25.14,177.2c-1.65-.78-3.31-1.53-4.94-2.35-.23-.12-.32-.55-.43-.86a2.84,2.84,0,0,1-.06-.66c-.36-4.23-1.05-5.22-3.75-5.32-3.81-.14-6.65,2-7.2,5.41-.22,1.39-.37,2.78-.56,4.17l-.42,0c0-2.41-.12-4.83.08-7.23.06-.67,1.08-1.25,1.59-1.91s1.15-1.28,1-1.8-1-1.14-1.63-1.31c-2.75-.72-3.85-.16-5.24,2.34A4.1,4.1,0,0,1,2.48,169a2,2,0,0,1-1.5.39c-.3-.11-.53-.91-.49-1.36.12-1.32-.06-3.2.71-3.82,2.38-1.9,4.19-5.13,8.11-4.29a3.55,3.55,0,0,1,2.85,2.21,4,4,0,0,0,2.92,2.41,23.19,23.19,0,0,1,4.91,2,4.93,4.93,0,0,1,1.69,2.13c1.17,2.3,2.22,4.65,3.31,7,.17.37.31.76.46,1.14Z"/>
                <path class="cls-2"
                      d="M127.59,194.09c-.89-2.68.77-6.25,2.83-7.24.83-.4,1.35-1.44,2-2.18.48-.55.86-1.34,1.46-1.59a27.06,27.06,0,0,1,4.59-1.39,2.8,2.8,0,0,0,2.5-2.28c.31-1.5,1.29-1.82,2.43-1a7.19,7.19,0,0,1,2.28,2.47c1,2,2.14,3.64,4.52,4.23a15.13,15.13,0,0,1,3.3,1.75l-.21.66c-3.15-.72-6.37-1.19-9.42-2.21-3.23-1.08-5.55-.32-7,2.7a3.48,3.48,0,0,1-2.24,1.82C131.57,190,129.18,191.12,127.59,194.09Z"/>
                <path class="cls-2"
                      d="M137.81,129.36c-2,1.05-3.6,2-5.28,2.66a2.82,2.82,0,0,1-2.08-.56c-.37-.24-.43-1-.62-1.49-1-2.68-2.52-3.15-5-1.73a22.48,22.48,0,0,1-3.63,1.56c-1.23.44-1.64,1-.67,2.12a19.65,19.65,0,0,1,2.11,3,5.37,5.37,0,0,1-3,7.68,14.08,14.08,0,0,0,.92-2.58,6.28,6.28,0,0,0-.15-2.59c-.66-2.19-1.62-4.3-2.17-6.52-.39-1.58.52-2.73,2.37-3.25a6.61,6.61,0,0,0,3.59-2.41c2.08-2.6,5.19-2.17,6.7.8a12.22,12.22,0,0,1,.65,1.7,2,2,0,0,0,2.53,1.53A23.38,23.38,0,0,1,137.81,129.36Z"/>
                <path class="cls-2"
                      d="M157.16,81.67c-.52-3.32-3.07-4.62-5.55-5.93a3.45,3.45,0,0,0-2.17-.46c-3.37.81-6.72,1.72-10,2.75-.54.17-1,1.07-1.22,1.73-.44,1.45-.68,3-1,4.45l-.66.06a6.4,6.4,0,0,1-.41-2.4A31.93,31.93,0,0,1,138,76.07a3.63,3.63,0,0,1,2.23-1.59c1.64-.42,3.39-.43,5.06-.77a3.6,3.6,0,0,0,1.94-1.08,2.58,2.58,0,0,1,3.24-.83c2,.8,4,1.66,5.91,2.53a1.16,1.16,0,0,1,.63.71c.31,2.11.55,4.24.81,6.36Z"/>
                <path class="cls-2"
                      d="M62.62,111.16a24.53,24.53,0,0,0-2.28,4.46c-.44,1.54-.27,3.25-.59,4.88-1.55-2.57-1-5.16,0-7.72A2.53,2.53,0,0,1,62.62,111.16Z"/>
                <path class="cls-2"
                      d="M2.94,193.55c-.27-1.13-.5-2.28-.81-3.41-.24-.89-.6-1.75-.86-2.63C.9,186.16.55,184.8.11,183.13c1.72.62,3.78,8.23,3.3,10.3Z"/>
                <path class="cls-2" style="fill:#000"
                      d="M475.47,2c2.41,1,4.24-.36,6.16-1a18.26,18.26,0,0,1,5.6-1,19.45,19.45,0,0,1,7,1.15,2.09,2.09,0,0,1,1.09,3.18,20.42,20.42,0,0,1-5.87,6.24,23,23,0,0,1-6.91,3c-.62.18-1.1.36-1.32,1a1.76,1.76,0,0,1-.69.79,49.35,49.35,0,0,1-10.33,5.71,3.5,3.5,0,0,1-1,0,5.38,5.38,0,0,1,.44-1.11c1.2-1.76,2.43-3.49,3.64-5.24.44-.64.19-1-.53-1.12-.38-.07-.76-.21-1.14-.24a2.15,2.15,0,0,1-2.07-1.86,2,2,0,0,1,.36-2c.32-.4.6-.83.94-1.21.61-.67.29-1-.4-1.21-2.08-.58-4.17-1.13-6.26-1.72a4.13,4.13,0,0,1-.8-.43c.21-.21.39-.53.63-.61,1.56-.46,3.13-.94,4.73-1.26C471,2.72,473.34,2.39,475.47,2Zm4.22,6.67a1.56,1.56,0,0,0-1.52-1.48,1.49,1.49,0,0,0-1.55,1.42,1.53,1.53,0,1,0,3.06.06Zm3.81-3.44A1.62,1.62,0,0,0,482,6.91a1.6,1.6,0,0,0,1.61,1.46,1.53,1.53,0,0,0,1.51-1.55A1.79,1.79,0,0,0,483.5,5.25Zm5.36-1.91A1.62,1.62,0,0,0,487.33,5a1.53,1.53,0,0,0,1.46,1.41,1.47,1.47,0,0,0,1.54-1.5A1.5,1.5,0,0,0,488.86,3.34Z"/>
            </g>
        </g>
    </g>
</svg>